<svg width="201" height="54" viewBox="0 0 201 54" fill="none" xmlns="http://www.w3.org/2000/svg">
<path d="M42.4942 2.16102C40.8423 2.56963 39.5382 3.62159 38.834 5.09955C38.7123 5.37776 38.5211 6.00371 38.4167 6.49057L38.2342 7.38604L38.4167 8.28151C38.6776 9.55951 39.0253 10.2202 39.886 11.0896C40.3642 11.5678 40.7728 11.8808 41.1901 12.0981C41.8334 12.4285 42.6854 12.6893 43.1288 12.6893C43.2766 12.6893 43.4157 12.7241 43.4418 12.7589C43.4592 12.7936 43.4331 13.0458 43.3809 13.3153C43.294 13.7326 43.2245 13.8456 42.9723 14.0108C42.1377 14.5759 42.0334 15.6887 42.7637 16.2973L42.9723 16.4798L42.8071 17.384C42.0247 21.6092 40.9467 24.3826 39.6165 25.5389C39.347 25.7823 38.9297 26.0083 38.3298 26.2431C35.1044 27.495 32.0876 29.2251 29.7576 31.1551C27.0104 33.4329 24.9151 36.1106 23.6893 38.9014C23.3589 39.6664 22.8982 40.9705 22.7156 41.6921L22.6287 42.0572L21.4724 42.5093C15.0302 45.0566 9.66608 48.4559 5.19743 52.8029C4.62363 53.368 4.21502 53.794 4.28457 53.7592C4.35412 53.7157 4.84967 53.368 5.3713 52.9767C8.29245 50.812 12.3873 48.4472 15.9518 46.8649C22.7156 43.8743 29.6533 42.1355 37.756 41.4052C40.199 41.1878 46.815 41.1878 49.2754 41.4052C57.7693 42.1703 65.0722 44.0655 72.0968 47.3344C75.3831 48.8645 79.1215 51.0728 81.6862 52.9941C82.173 53.368 82.6338 53.707 82.7034 53.7505C83.0511 53.9939 80.9646 51.9509 80.0517 51.1597C76.0091 47.6474 71.0796 44.6828 65.8459 42.631C65.2895 42.405 64.8114 42.205 64.7679 42.1703C64.7331 42.1355 64.6114 41.7529 64.4897 41.3269C63.516 37.6755 61.1338 34.1545 57.7519 31.3203C55.5002 29.4337 52.3443 27.5906 49.3189 26.3822C48.1191 25.904 48.0322 25.8431 47.4758 25.2954C46.9889 24.7999 46.8063 24.5304 46.3716 23.6349C45.6153 22.0613 45.0676 20.253 44.5807 17.7057L44.346 16.5059L44.572 16.332C44.9111 16.0712 45.0589 15.7148 45.0589 15.1931C45.0589 14.628 44.8241 14.2368 44.3199 13.9499C44.0069 13.7847 43.9634 13.7152 43.9113 13.3327C43.8765 13.0979 43.8591 12.8632 43.8765 12.811C43.8939 12.7589 44.1199 12.6893 44.3807 12.6632C45.4153 12.5589 46.6064 11.9851 47.4062 11.2113C48.293 10.3507 48.9276 9.0031 49.0146 7.78596L49.058 7.25563L48.8929 7.74249C48.293 9.58559 46.7455 10.794 44.8415 10.9245C42.2247 11.0983 39.9382 8.79445 40.1381 6.1689C40.2251 4.94306 40.6771 4.02151 41.6074 3.16082C42.1029 2.70004 43.0158 2.16971 43.3201 2.16971C43.3896 2.16971 43.5114 2.12624 43.5809 2.08278C43.7896 1.94367 43.181 1.98714 42.4942 2.16102ZM47.7105 36.9974C51.7184 37.3191 56.0305 38.3363 59.5342 39.7881C60.447 40.162 62.7074 41.3183 62.7074 41.4052C62.7074 41.4487 62.6379 41.466 62.5596 41.44C57.2651 39.7794 52.7964 38.9274 47.6236 38.5971C45.6414 38.4667 41.2944 38.4667 39.3644 38.5971C34.7566 38.9014 30.0011 39.7534 25.8541 40.9966C25.3151 41.1618 24.8543 41.2835 24.8282 41.2661C24.7239 41.1618 27.4103 39.8925 29.0187 39.2926C34.5219 37.2408 40.938 36.4497 47.7105 36.9974Z" fill="white"/>
<path d="M84.5996 36.5074V34.815H83.4006C83.8471 34.2863 84.097 33.6134 84.1065 32.9147C84.1065 31.9843 83.7052 31.2222 82.3757 30.6779C82.1297 30.5972 81.9029 30.4648 81.7098 30.2893C81.5167 30.1138 81.3614 29.8989 81.254 29.6585C81.3797 29.6585 81.4764 29.5892 81.4764 29.515C81.4764 29.4407 81.3894 29.4011 81.2831 29.3764V28.8815C81.3169 28.8815 81.3459 28.8518 81.3459 28.8222C81.3459 28.7925 81.3169 28.7826 81.2782 28.7677V28.2729C81.4555 28.3223 81.6424 28.3223 81.8197 28.2729C81.9477 28.2282 82.0658 28.158 82.167 28.0663C82.2683 27.9745 82.3507 27.8631 82.4095 27.7384C82.312 27.8249 82.1986 27.8905 82.0759 27.9314C81.8858 27.9973 81.681 28.0044 81.487 27.9517C81.2929 27.899 81.1184 27.7889 80.9853 27.6352C80.8521 27.4814 80.7662 27.2909 80.7384 27.0874C80.7105 26.884 80.7419 26.6766 80.8286 26.4913C80.6742 26.6261 80.5631 26.8054 80.5096 27.0057C80.4561 27.2061 80.4628 27.4183 80.5288 27.6147C80.5832 27.7761 80.6764 27.921 80.7997 28.036C80.923 28.151 81.0726 28.2324 81.2347 28.2729L81.2057 28.7974C81.1573 28.7974 81.1235 28.8271 81.1235 28.8518C81.1235 28.8766 81.1574 28.9013 81.2009 28.9112L81.1719 29.4061C81.0607 29.4061 80.9688 29.4754 80.9688 29.5447C80.9688 29.6139 81.0752 29.6783 81.2057 29.6882C81.0998 29.9296 80.9451 30.1454 80.7518 30.3211C80.5584 30.4968 80.3308 30.6286 80.0841 30.7076C79.7342 30.8479 79.408 31.0432 79.1171 31.2866L78.9479 25.8134H79.0784L79.7456 24.8237H78.9189L78.7062 19.2465H78.8464L79.4072 18.2271H78.6578L78.5756 15.5647C78.6917 15.4593 78.7846 15.3297 78.8479 15.1847C78.9113 15.0396 78.9437 14.8824 78.9431 14.7235C78.9431 14.2039 78.1889 13.7684 77.9278 13.6348C77.9582 13.6198 77.9841 13.5967 78.0028 13.568C78.0215 13.5393 78.0323 13.5059 78.0341 13.4715C78.0318 13.4331 78.018 13.3965 77.9947 13.3664C77.9713 13.3363 77.9396 13.3143 77.9036 13.3032V12.6648C77.9228 12.6565 77.9394 12.6428 77.9513 12.6253C77.9633 12.6078 77.9702 12.5872 77.9713 12.5659C77.9696 12.5434 77.9619 12.5219 77.9492 12.5036C77.9364 12.4853 77.919 12.4709 77.8988 12.462V12.1403C77.9975 12.1431 78.0949 12.1177 78.1803 12.067C78.2657 12.0163 78.3356 11.9423 78.3822 11.8533C78.3029 11.8947 78.2151 11.9168 78.126 11.9176C78.0577 11.9183 77.9899 11.905 77.9266 11.8787C77.8632 11.8524 77.8056 11.8135 77.7571 11.7643C77.7085 11.715 77.67 11.6564 77.6437 11.5919C77.6174 11.5273 77.6039 11.4581 77.6039 11.3881C77.606 11.2867 77.6344 11.1876 77.6861 11.1011C77.5934 11.1449 77.5148 11.2146 77.4592 11.3021C77.4036 11.3897 77.3733 11.4915 77.3718 11.5959C77.3729 11.7266 77.42 11.8525 77.5043 11.9507C77.5886 12.0488 77.7046 12.1126 77.8311 12.1304V12.462C77.8115 12.4711 77.7948 12.4857 77.7828 12.5041C77.7709 12.5224 77.7642 12.5438 77.7634 12.5659C77.7646 12.5865 77.7709 12.6066 77.782 12.6239C77.793 12.6413 77.8083 12.6554 77.8263 12.6648V13.3032C77.7923 13.313 77.7621 13.3332 77.7396 13.3609C77.7171 13.3887 77.7034 13.4228 77.7002 13.4588C77.6971 13.4947 77.7047 13.5308 77.722 13.5622C77.7393 13.5937 77.7656 13.619 77.7972 13.6348C77.5362 13.7684 76.782 14.2039 76.782 14.7235C76.7825 14.8822 76.8155 15.039 76.8788 15.1839C76.9421 15.3288 77.0342 15.4585 77.1494 15.5647L77.0672 18.2271H76.2888L76.8497 19.2465H76.9947L76.8206 24.7692H75.9987L76.6611 25.7589H76.7916L76.6224 31.2816H76.5983C76.3822 30.7498 76.032 30.2863 75.5835 29.9385C75.1349 29.5907 74.6042 29.3711 74.0455 29.3022C74.0477 29.2891 74.0477 29.2757 74.0455 29.2626C74.0455 29.0993 73.8377 28.9558 73.7216 28.8914L73.6878 27.0505C73.6867 27.0378 73.6812 27.0258 73.6724 27.0168C73.6636 27.0077 73.6519 27.0022 73.6394 27.0011C73.6275 27.0023 73.6164 27.008 73.6083 27.0172C73.6003 27.0263 73.5958 27.0382 73.5959 27.0505L73.5621 28.8914C73.4412 28.9558 73.2382 29.0993 73.2382 29.2626C73.2382 29.2626 73.2382 29.2873 73.2382 29.3022C72.8285 29.3534 72.4327 29.4869 72.0734 29.6949C71.7142 29.903 71.3986 30.1815 71.1447 30.5146V26.719C71.1447 26.4171 71.3961 25.5808 70.9465 24.8583C70.2213 23.7003 68.5292 23.1857 67.6686 22.5473C67.6836 22.5044 67.6918 22.4592 67.6928 22.4137C67.6927 22.3419 67.672 22.2718 67.6334 22.212C67.5947 22.1522 67.5397 22.1053 67.4752 22.0772L67.4124 20.2066C67.4111 20.1891 67.4035 20.1727 67.3909 20.1608C67.3784 20.1488 67.3618 20.1422 67.3447 20.1422C67.336 20.1416 67.3273 20.1427 67.3191 20.1456C67.3109 20.1486 67.3034 20.1532 67.2971 20.1592C67.2907 20.1653 67.2857 20.1726 67.2822 20.1808C67.2787 20.1889 67.277 20.1977 67.277 20.2066L67.2141 22.0772C67.1484 22.104 67.092 22.1504 67.0524 22.2104C67.0127 22.2704 66.9916 22.3412 66.9918 22.4137C66.9921 22.4598 67.002 22.5053 67.0208 22.5473C66.2085 23.1461 64.6856 23.6409 63.8975 24.6604L63.6993 18.2271H63.854L64.6663 16.99H63.6607L63.4818 10.2796H63.6558L64.3423 9.03749H63.4431L63.3464 5.80108C63.4881 5.67176 63.6015 5.51316 63.679 5.33574C63.7565 5.15832 63.7964 4.96611 63.796 4.77177C63.796 4.14329 62.8774 3.61379 62.5584 3.45048C62.5947 3.43197 62.6255 3.40385 62.6476 3.36905C62.6697 3.33424 62.6823 3.29401 62.6841 3.25254C62.6819 3.2052 62.6654 3.15974 62.6368 3.12248C62.6082 3.08523 62.5689 3.05803 62.5245 3.04469V2.2727C62.5471 2.26061 62.5664 2.24299 62.5808 2.22141C62.5951 2.19982 62.604 2.17495 62.6067 2.14899C62.6056 2.12192 62.5968 2.09577 62.5813 2.07378C62.5658 2.05179 62.5444 2.03493 62.5197 2.02527V1.64918C62.6348 1.6453 62.7469 1.61029 62.8446 1.54771C62.9422 1.48513 63.022 1.39721 63.0757 1.29287C62.9768 1.34907 62.8648 1.37645 62.7517 1.37205C62.5863 1.36947 62.4284 1.30071 62.3118 1.18048C62.1953 1.06025 62.1293 0.898102 62.1281 0.728729C62.1289 0.606412 62.1624 0.486653 62.2248 0.382324C62.112 0.435413 62.0165 0.520534 61.9497 0.627563C61.8828 0.734592 61.8474 0.859024 61.8477 0.986058C61.8487 1.14396 61.9056 1.29613 62.0078 1.41441C62.11 1.53268 62.2506 1.60905 62.4036 1.62938V2.04012C62.3801 2.05101 62.3601 2.06832 62.3456 2.09015C62.3311 2.11197 62.3227 2.13747 62.3215 2.16383C62.3228 2.18955 62.3306 2.21448 62.3441 2.23617C62.3577 2.25786 62.3765 2.27557 62.3988 2.28755V3.05954C62.3549 3.07308 62.3163 3.10047 62.2885 3.13779C62.2608 3.17512 62.2452 3.22047 62.2441 3.26738C62.2459 3.30886 62.2585 3.34908 62.2806 3.38389C62.3027 3.4187 62.3335 3.44682 62.3698 3.46533C62.0507 3.62863 61.1321 4.15814 61.1321 4.78661C61.1318 4.98096 61.1717 5.17317 61.2492 5.35059C61.3267 5.528 61.44 5.6866 61.5817 5.81593L61.4802 9.05234H60.5761L61.2578 10.2796H61.4319L61.2288 16.9999H60.2232L61.0354 18.237H61.1901L61.0209 23.6805C60.3779 22.478 58.6568 21.8099 57.743 20.9835C57.7683 20.9277 57.7815 20.8669 57.7817 20.8054C57.781 20.7098 57.7499 20.6172 57.6932 20.5413C57.6365 20.4654 57.5573 20.4105 57.4674 20.3847L57.4046 17.752C57.4053 17.7438 57.4043 17.7356 57.4016 17.7278C57.399 17.72 57.3949 17.7129 57.3894 17.7068C57.3839 17.7008 57.3773 17.696 57.3699 17.6927C57.3626 17.6894 57.3546 17.6877 57.3466 17.6877C57.3297 17.6887 57.3138 17.6957 57.3014 17.7074C57.2891 17.7192 57.2811 17.7349 57.2789 17.752L57.216 20.3847C57.1267 20.4107 57.0481 20.4658 56.9922 20.5418C56.9363 20.6177 56.9063 20.7103 56.9066 20.8054C56.9068 20.8669 56.92 20.9277 56.9453 20.9835C56.1186 21.7258 54.6343 22.3394 53.8753 23.3292L53.7157 18.1974H53.8173L54.3684 17.3562H53.6867L53.5465 12.8034H53.6674L54.1509 11.9671H53.5465L53.4547 9.78474C53.5497 9.6973 53.6259 9.59052 53.6784 9.47122C53.7308 9.35193 53.7584 9.22274 53.7592 9.09193C53.7592 8.6614 53.1404 8.3051 52.9228 8.19623C52.9471 8.18367 52.9675 8.16461 52.982 8.14107C52.9965 8.11754 53.0044 8.09042 53.005 8.06261C53.0043 8.03027 52.9937 7.99897 52.9746 7.9732C52.9555 7.94742 52.9289 7.92849 52.8987 7.9191V7.39455C52.9141 7.38664 52.9271 7.37467 52.9364 7.35988C52.9458 7.34509 52.9511 7.32802 52.9519 7.31042C52.9512 7.29214 52.9454 7.27445 52.9351 7.2595C52.9248 7.24456 52.9105 7.23302 52.8938 7.22629V6.95907C52.9722 6.95699 53.0487 6.93398 53.1157 6.89231C53.1827 6.85064 53.2379 6.79177 53.2758 6.72153C53.2108 6.75909 53.1377 6.7795 53.063 6.78091C52.9858 6.78096 52.91 6.75973 52.8435 6.71945C52.7771 6.67917 52.7225 6.62132 52.6854 6.55198C52.6483 6.48264 52.6301 6.40435 52.6328 6.32535C52.6354 6.24634 52.6588 6.16952 52.7004 6.10295C52.6241 6.13953 52.5595 6.19755 52.5141 6.27027C52.4687 6.34299 52.4445 6.42741 52.4442 6.51369C52.4446 6.6208 52.4831 6.7241 52.5525 6.80426C52.6219 6.88441 52.7175 6.93593 52.8213 6.94917V7.22629C52.8047 7.23302 52.7904 7.24456 52.7801 7.2595C52.7697 7.27445 52.7639 7.29214 52.7633 7.31042C52.7635 7.32815 52.7686 7.34545 52.778 7.36034C52.7874 7.37522 52.8008 7.38708 52.8165 7.39455V7.9191C52.7862 7.92849 52.7597 7.94742 52.7406 7.9732C52.7214 7.99897 52.7108 8.03027 52.7101 8.06261C52.7117 8.09018 52.72 8.11689 52.7344 8.14026C52.7488 8.16363 52.7687 8.18288 52.7923 8.19623C52.5796 8.3051 51.9559 8.6614 51.9559 9.09193C51.9565 9.22327 51.9844 9.35298 52.0377 9.47243C52.0911 9.59189 52.1687 9.69835 52.2653 9.78474L52.1976 11.9819H51.5885L52.0719 12.8183H52.188L52.0478 17.371H51.3661L51.9172 18.2123H52.0236L51.9269 21.2953C51.9269 21.2507 51.9269 21.2013 51.8931 21.1617C50.6941 18.1281 46.3042 16.6337 44.2881 14.6245C44.3539 14.5074 44.3857 14.3735 44.38 14.2385C44.3787 14.0794 44.3271 13.925 44.233 13.7983C44.1389 13.6717 44.0073 13.5796 43.8578 13.5358L43.7756 10.141H43.8288C44.3864 10.1424 44.9335 9.98651 45.4102 9.69059C45.8869 9.39468 46.2748 8.97011 46.5314 8.46345C46.0876 8.71626 45.5889 8.85071 45.081 8.85439C44.6889 8.8544 44.3006 8.77526 43.9383 8.6215C43.5761 8.46775 43.247 8.2424 42.97 7.95835C42.6929 7.6743 42.4733 7.33712 42.3237 6.96611C42.1741 6.59509 42.0974 6.19752 42.098 5.79614C42.1025 5.21708 42.2704 4.65169 42.5815 4.16803C41.9723 4.45286 41.4719 4.93523 41.1576 5.54049C40.8433 6.14576 40.7326 6.84019 40.8427 7.51632C40.9528 8.19246 41.2775 8.81261 41.7666 9.28081C42.2557 9.74902 42.882 10.0392 43.5484 10.1064L43.413 13.5309C43.2696 13.5812 43.1455 13.6768 43.0586 13.804C42.9717 13.9312 42.9265 14.0833 42.9296 14.2385C42.9316 14.3705 42.9701 14.4992 43.0408 14.6097C40.9957 16.6089 36.6155 18.1034 35.4165 21.1369C35.4165 21.1963 35.3875 21.2606 35.3681 21.32L35.2714 18.1974H35.3778L35.9241 17.3562H35.2473L35.1071 12.8034H35.2231L35.7066 11.9671H35.0781L35.0104 9.78474C35.1064 9.6981 35.1832 9.59148 35.2358 9.472C35.2883 9.35252 35.3153 9.22295 35.315 9.09193C35.315 8.6614 34.6961 8.3051 34.4786 8.19623C34.5034 8.18392 34.5245 8.16504 34.5398 8.14155C34.5551 8.11806 34.564 8.0908 34.5656 8.06261C34.5639 8.02985 34.5522 7.99844 34.5323 7.97273C34.5124 7.94702 34.4852 7.92828 34.4544 7.9191V7.39455C34.471 7.38782 34.4853 7.37628 34.4956 7.36133C34.506 7.34639 34.5118 7.3287 34.5124 7.31042C34.5107 7.29245 34.5045 7.27524 34.4943 7.26048C34.4841 7.24573 34.4704 7.23395 34.4544 7.22629V6.95907C34.5324 6.95817 34.6087 6.9356 34.6751 6.89376C34.7415 6.85192 34.7956 6.79239 34.8315 6.72153C34.7665 6.75909 34.6934 6.7795 34.6188 6.78091C34.5046 6.78091 34.3952 6.73451 34.3145 6.65192C34.2338 6.56932 34.1885 6.4573 34.1885 6.34049C34.191 6.25672 34.2143 6.17499 34.2562 6.10295C34.1798 6.13953 34.1152 6.19755 34.0698 6.27027C34.0245 6.34299 34.0002 6.42741 33.9999 6.51369C34.0013 6.6205 34.0402 6.72325 34.1094 6.80318C34.1786 6.88312 34.2736 6.93494 34.377 6.94917V7.22629C34.3617 7.2342 34.3486 7.24617 34.3393 7.26096C34.3299 7.27575 34.3246 7.29282 34.3238 7.31042C34.3234 7.32828 34.3283 7.34586 34.3378 7.36086C34.3473 7.37587 34.3609 7.3876 34.377 7.39455V7.9191C34.3477 7.92934 34.3222 7.94864 34.304 7.97434C34.2858 8.00004 34.2758 8.03088 34.2755 8.06261C34.2759 8.08983 34.2838 8.11638 34.2983 8.13916C34.3129 8.16194 34.3335 8.18002 34.3577 8.19128C34.1401 8.3051 33.5213 8.6614 33.5213 9.09193C33.521 9.22295 33.548 9.35252 33.6005 9.472C33.653 9.59148 33.7299 9.6981 33.8259 9.78474L33.7437 11.9572H33.1345L33.618 12.7935H33.7437L33.6035 17.3463H32.8976L33.4488 18.1974H33.5503L33.3908 23.349C32.6317 22.3592 31.1571 21.7555 30.3352 21.0182C30.3606 20.9623 30.3738 20.9015 30.3739 20.84C30.3732 20.7445 30.3421 20.6518 30.2854 20.5759C30.2288 20.5001 30.1495 20.4451 30.0597 20.4194L29.9968 17.7867C29.9968 17.7782 29.9952 17.7699 29.992 17.7621C29.9889 17.7543 29.9842 17.7472 29.9784 17.7412C29.9726 17.7352 29.9656 17.7305 29.958 17.7273C29.9504 17.724 29.9422 17.7224 29.934 17.7224C29.9259 17.7223 29.918 17.724 29.9106 17.7273C29.9032 17.7306 29.8966 17.7354 29.8911 17.7415C29.8857 17.7475 29.8815 17.7547 29.8789 17.7624C29.8763 17.7702 29.8753 17.7785 29.8759 17.7867L29.8131 20.4194C29.7232 20.4451 29.644 20.5001 29.5873 20.5759C29.5306 20.6518 29.4996 20.7445 29.4988 20.84C29.499 20.9015 29.5122 20.9623 29.5375 21.0182C28.6189 21.8446 26.9026 22.5027 26.2596 23.7201L26.0904 18.2766H26.2451L27.0573 17.0394H26.0517L25.8438 10.2796H26.0082L26.6899 9.03749H25.8052L25.7085 5.82583C25.8502 5.6965 25.9635 5.5379 26.041 5.36048C26.1185 5.18307 26.1584 4.99085 26.1581 4.79651C26.1581 4.16803 25.2395 3.63853 24.9204 3.47522C24.9618 3.45831 24.9968 3.4282 25.0203 3.38935C25.0437 3.3505 25.0543 3.30497 25.0505 3.25948C25.0467 3.214 25.0287 3.17096 24.9992 3.13674C24.9697 3.10252 24.9302 3.07892 24.8866 3.06944V2.29745C24.9097 2.28612 24.9296 2.2687 24.944 2.24696C24.9584 2.22523 24.967 2.19995 24.9688 2.17373C24.9677 2.14666 24.9588 2.12051 24.9434 2.09852C24.9279 2.07653 24.9065 2.05967 24.8817 2.05002V1.64918C24.9969 1.6453 25.109 1.61029 25.2066 1.54771C25.3043 1.48513 25.384 1.39721 25.4377 1.29287C25.3436 1.34821 25.2369 1.37722 25.1283 1.377C25.0447 1.37765 24.9618 1.36137 24.8844 1.32908C24.807 1.2968 24.7367 1.24915 24.6773 1.18888C24.618 1.12862 24.5709 1.05694 24.5388 0.97796C24.5067 0.898984 24.4901 0.814279 24.4901 0.728729C24.4886 0.606076 24.5222 0.48566 24.5868 0.382324C24.4596 0.441189 24.3545 0.540841 24.2875 0.666223C24.2205 0.791604 24.1952 0.935902 24.2154 1.07731C24.2356 1.21872 24.3002 1.34955 24.3995 1.45005C24.4988 1.55054 24.6273 1.61522 24.7657 1.63433V2.04012C24.741 2.04977 24.7195 2.06664 24.7041 2.08863C24.6886 2.11061 24.6798 2.13676 24.6787 2.16383C24.68 2.18955 24.6878 2.21448 24.7014 2.23617C24.7149 2.25786 24.7338 2.27557 24.756 2.28755V3.05954C24.7121 3.07308 24.6735 3.10047 24.6458 3.13779C24.618 3.17512 24.6024 3.22047 24.6013 3.26738C24.6031 3.30886 24.6157 3.34908 24.6378 3.38389C24.6599 3.4187 24.6907 3.44682 24.727 3.46533C24.4079 3.62863 23.4893 4.15814 23.4893 4.78661C23.4852 4.98113 23.5214 5.17433 23.5956 5.35347C23.6697 5.5326 23.7802 5.6936 23.9196 5.82583L23.8181 9.06224H22.9382L23.6199 10.2796H23.7988L23.5909 17.0147H22.5853L23.3975 18.2519H23.5522L23.354 24.6851C22.5708 23.6409 21.043 23.1461 20.2308 22.5473C20.2496 22.5053 20.2594 22.4598 20.2598 22.4137C20.26 22.3412 20.2388 22.2704 20.1992 22.2104C20.1595 22.1504 20.1031 22.104 20.0374 22.0772L19.9745 20.2066C19.9745 20.1895 19.9679 20.1731 19.9561 20.1611C19.9443 20.149 19.9284 20.1422 19.9117 20.1422C19.9028 20.1416 19.8939 20.1427 19.8854 20.1456C19.8769 20.1484 19.8691 20.153 19.8624 20.159C19.8556 20.165 19.8501 20.1722 19.8461 20.1804C19.8421 20.1886 19.8398 20.1975 19.8392 20.2066L19.7763 22.0772C19.7118 22.1053 19.6568 22.1522 19.6182 22.212C19.5795 22.2718 19.5588 22.3419 19.5588 22.4137C19.5598 22.4592 19.5679 22.5044 19.5829 22.5473C18.7175 23.1857 17.0254 23.7003 16.3002 24.8583C15.8554 25.5808 16.1068 26.4171 16.1068 26.719V30.5344C15.8529 30.2013 15.5373 29.9227 15.1781 29.7147C14.8189 29.5067 14.4231 29.3732 14.0134 29.322C14.0134 29.322 14.0134 29.322 14.0134 29.2824C14.0134 29.1191 13.8055 28.9756 13.6895 28.9112L13.6556 27.0703C13.6556 27.0572 13.6505 27.0446 13.6415 27.0353C13.6324 27.0261 13.6201 27.0209 13.6073 27.0209C13.5957 27.023 13.5851 27.029 13.5773 27.038C13.5694 27.0469 13.5646 27.0583 13.5638 27.0703L13.5299 28.9112C13.4139 28.9756 13.206 29.1191 13.206 29.2824C13.206 29.2824 13.206 29.3071 13.206 29.322C12.635 29.3956 12.0942 29.6265 11.6413 29.9899C11.1884 30.3533 10.8402 30.8356 10.6339 31.3855L10.4647 25.7837H10.5904L11.2576 24.794H10.4406L10.2713 19.2713H10.4164L10.9772 18.2519H10.2423L10.1601 15.5895C10.2796 15.4831 10.3752 15.3515 10.4403 15.2037C10.5054 15.0559 10.5385 14.8955 10.5372 14.7334C10.5372 14.2138 9.78304 13.7783 9.52197 13.6447C9.55113 13.6286 9.57578 13.6052 9.59356 13.5766C9.61134 13.548 9.62165 13.5152 9.62349 13.4814C9.62113 13.443 9.60735 13.4064 9.58401 13.3763C9.56068 13.3462 9.5289 13.3242 9.49296 13.3131V12.6747C9.51095 12.6653 9.52622 12.6512 9.53725 12.6338C9.54827 12.6165 9.55467 12.5964 9.55581 12.5758C9.55507 12.5537 9.54834 12.5323 9.53639 12.514C9.52443 12.4956 9.50772 12.481 9.48812 12.4719V12.1502C9.5827 12.1485 9.67512 12.121 9.75586 12.0705C9.83659 12.0201 9.90272 11.9485 9.94742 11.8632C9.86849 11.9059 9.78047 11.928 9.69118 11.9275C9.55398 11.9275 9.4224 11.8717 9.32539 11.7724C9.22837 11.6731 9.17387 11.5384 9.17387 11.398C9.17431 11.297 9.20101 11.1979 9.25122 11.111C9.14544 11.1586 9.0579 11.2405 9.00207 11.3441C8.94624 11.4477 8.92523 11.5672 8.94227 11.6842C8.9593 11.8012 9.01344 11.9092 9.09635 11.9916C9.17926 12.0741 9.28634 12.1263 9.4011 12.1403V12.4719C9.3815 12.481 9.36479 12.4956 9.35283 12.514C9.34088 12.5323 9.33415 12.5537 9.33341 12.5758C9.33448 12.5971 9.3414 12.6177 9.35337 12.6352C9.36534 12.6527 9.38188 12.6664 9.4011 12.6747V13.3131C9.36516 13.3242 9.33338 13.3462 9.31004 13.3763C9.28671 13.4064 9.27293 13.443 9.27056 13.4814C9.27241 13.5152 9.28272 13.548 9.3005 13.5766C9.31827 13.6052 9.34293 13.6286 9.37209 13.6447C9.11102 13.7783 8.36164 14.2138 8.36164 14.7334C8.36099 14.8923 8.39342 15.0495 8.45678 15.1945C8.52013 15.3396 8.61296 15.4692 8.72908 15.5746L8.60338 18.2271H7.88301L8.44383 19.2465H8.60338L8.43416 24.7692H7.59293L8.26012 25.7589H8.38582L8.22144 31.2321C7.92356 30.986 7.58891 30.7905 7.23033 30.6532C6.98444 30.5735 6.7578 30.4415 6.56532 30.2658C6.37283 30.0901 6.21886 29.8747 6.11352 29.6337C6.23439 29.6337 6.33592 29.5645 6.33592 29.4902C6.33592 29.416 6.24889 29.3764 6.13769 29.3517V28.8568C6.17637 28.8568 6.20054 28.8271 6.20054 28.7974C6.20054 28.7677 6.17154 28.7578 6.13769 28.743V28.2481C6.31331 28.2976 6.49873 28.2976 6.67434 28.2481C6.803 28.2036 6.92178 28.1334 7.02383 28.0417C7.12589 27.95 7.20922 27.8385 7.26901 27.7137C7.14174 27.8234 6.99029 27.8998 6.82773 27.9362C6.66517 27.9726 6.4964 27.9679 6.33599 27.9226C6.17558 27.8773 6.02836 27.7927 5.90705 27.6761C5.78574 27.5595 5.69399 27.4145 5.63972 27.2534C5.59468 27.1259 5.57573 26.9902 5.58405 26.8549C5.59237 26.7195 5.62777 26.5874 5.68807 26.4666C5.5459 26.5882 5.43952 26.7479 5.38077 26.9277C5.32201 27.1076 5.3132 27.3006 5.3553 27.4853C5.3974 27.67 5.48877 27.8391 5.61923 27.9738C5.74968 28.1085 5.91411 28.2034 6.09418 28.2481L6.06517 28.7727C6.01683 28.7727 5.97815 28.8024 5.97815 28.8271C5.97815 28.8518 6.01199 28.8766 6.0555 28.8865L6.0265 29.3813C5.9153 29.3813 5.82828 29.4506 5.82828 29.5199C5.82828 29.5892 5.93464 29.6535 6.06034 29.6634C5.95552 29.9047 5.80172 30.1204 5.60916 30.2962C5.41661 30.472 5.1897 30.6038 4.94353 30.6828C3.60916 31.2272 3.20788 31.9893 3.20788 32.9196C3.21493 33.6197 3.4671 34.294 3.91858 34.8199H2.6809V36.5074C-18.472 36.5074 92.7476 36.5074 84.5996 36.5074Z" fill="url(#paint0_linear_922_1374)" style="mix-blend-mode:multiply"/>
<path d="M97.7319 18.0418C97.6301 18.0558 97.3539 18.1046 97.1141 18.1464C96.5254 18.2441 95.5879 18.6904 95.1301 19.0809C93.8728 20.1618 93.4731 21.9331 94.1708 23.3347C94.4251 23.8368 94.9411 24.4505 95.4644 24.855C95.6751 25.0223 96.4092 25.4826 97.0996 25.8801C99.1418 27.0586 99.8176 27.5955 100.181 28.3626C100.348 28.7113 100.363 28.8229 100.334 29.3668C100.312 29.8759 100.268 30.0502 100.072 30.4338C99.7813 30.9986 99.3089 31.417 98.8002 31.5635C98.3641 31.689 97.3903 31.7029 96.8452 31.5914C95.4062 31.2985 94.2144 30.2036 93.9309 28.9066C93.8728 28.6276 93.8147 28.53 93.7274 28.53C93.5676 28.53 93.553 28.6695 93.444 30.378C93.4004 31.0683 93.3495 31.8773 93.3205 32.1702L93.2769 32.7141H93.4658C93.6112 32.7141 93.6548 32.6722 93.6911 32.47C93.7202 32.3305 93.8219 32.1702 93.9382 32.0865C94.1853 31.8912 94.3815 31.9191 95.3699 32.2887C96.5182 32.7211 96.9688 32.8117 98.0952 32.8117C99.2144 32.8117 99.774 32.7071 100.588 32.3445C102.812 31.3473 103.866 28.7531 102.848 26.7866C102.332 25.8033 101.431 25.0642 99.3089 23.8926C96.6853 22.4421 96.0022 21.3403 96.8598 19.9038C97.2159 19.304 97.7609 19.046 98.6694 19.046C100.239 19.046 101.387 19.8828 101.729 21.2566C101.794 21.5425 101.845 21.6262 101.954 21.6262C102.027 21.6262 102.092 21.5844 102.092 21.5356C102.092 21.4937 102.158 20.6987 102.238 19.7782C102.318 18.8577 102.383 18.0837 102.383 18.0488C102.383 18.0209 102.303 18 102.209 18C102.078 18 102.012 18.0558 101.954 18.2092C101.918 18.3278 101.823 18.4393 101.758 18.4672C101.693 18.4881 101.104 18.4114 100.457 18.2859C99.3743 18.0767 98.1606 17.9651 97.7319 18.0418Z" fill="white"/>
<path d="M183.634 18.4812C183.634 18.6695 183.649 18.6764 184.078 18.7252C184.703 18.781 185.102 18.9693 185.313 19.2971L185.487 19.569V31.4449L185.269 31.7517C185.022 32.0865 184.746 32.205 184.056 32.2748C183.649 32.3166 183.634 32.3236 183.634 32.5119V32.7141H188.939V32.5119C188.939 32.3236 188.925 32.3166 188.496 32.2678C187.835 32.205 187.457 32.0167 187.253 31.6541L187.086 31.3543L187.043 22.5119L192.544 27.735C196.956 31.9331 198.082 32.9651 198.249 32.9791L198.46 33V26.424C198.46 21.8633 198.482 19.7643 198.54 19.569C198.7 19.0321 199.281 18.6973 200.059 18.6973C200.255 18.6973 200.277 18.6764 200.277 18.4881V18.2789H195.044V18.4881C195.044 18.6764 195.066 18.6973 195.284 18.6973C195.698 18.6973 196.352 18.8856 196.541 19.053C196.919 19.3947 196.934 19.583 196.934 23.7462C196.934 27.4212 196.941 27.6025 197.079 27.8954C197.159 28.0628 197.224 28.251 197.224 28.3138C197.224 28.3766 194.848 26.145 191.934 23.3487L186.65 18.2789H183.634V18.4812Z" fill="white"/>
<path d="M129.891 19.9177C129.716 19.9944 128.902 20.0153 125.661 20.0223H121.642V20.2176C121.642 20.3989 121.664 20.4128 122.151 20.4895C122.761 20.5802 122.972 20.6987 123.168 21.0683C123.306 21.3333 123.314 21.4658 123.314 26.3054C123.314 31.2148 123.314 31.2775 123.161 31.5774C122.972 31.954 122.703 32.0934 122.1 32.1423C121.657 32.1771 121.642 32.1771 121.642 32.3724V32.5746H130.697L130.923 31.1939C131.148 29.7852 131.148 29.7225 130.865 29.7155C130.785 29.7155 130.697 29.8619 130.588 30.1827C130.399 30.7336 130.21 30.9986 129.905 31.166C129.702 31.2706 129.404 31.2845 127.696 31.3054C126.606 31.3194 125.712 31.3124 125.712 31.2985C125.712 31.2845 125.777 31.1172 125.865 30.9428C126.003 30.629 126.01 30.5105 125.988 28.6485C125.966 26.9121 125.952 26.6541 125.843 26.4867C125.77 26.3891 125.712 26.2845 125.712 26.2636C125.712 26.1799 128.583 26.2287 128.757 26.3194C129.019 26.4449 129.208 26.7238 129.251 27.0516C129.288 27.3166 129.309 27.3445 129.498 27.3445H129.709V23.9972H129.498C129.309 23.9972 129.288 24.0251 129.251 24.2901C129.2 24.6597 128.997 24.9177 128.684 25.0223C128.437 25.106 125.712 25.1548 125.712 25.0781C125.712 25.0572 125.77 24.9526 125.843 24.855C125.944 24.6946 125.974 24.4575 125.988 23.3347C126.01 22.0237 125.995 21.8912 125.748 21.3264C125.697 21.2148 125.792 21.2078 127.173 21.2078C127.987 21.2078 128.786 21.2427 128.939 21.2775C129.331 21.3612 129.491 21.5425 129.593 22.0167C129.665 22.3584 129.709 22.4351 129.84 22.4491C129.927 22.463 130 22.4491 130.007 22.4142C130.007 22.3863 130.065 21.7866 130.138 21.0823C130.218 20.2385 130.232 19.8131 130.181 19.8201C130.145 19.8201 130.014 19.8689 129.891 19.9177Z" fill="white"/>
<path d="M174.848 19.9665C174.811 20.0572 173.779 22.6374 172.551 25.7057C171.323 28.7741 170.276 31.3612 170.226 31.4589C170.095 31.689 169.76 31.9888 169.535 32.0725C169.433 32.1074 169.179 32.1632 168.976 32.1911C168.612 32.2329 168.59 32.2469 168.59 32.4421V32.6444H173.242V32.4421C173.242 32.2469 173.227 32.2399 172.769 32.1911C172.391 32.1562 172.253 32.1074 172.072 31.94C171.774 31.675 171.795 31.5286 172.326 30.1688C172.551 29.59 172.747 29.0042 172.755 28.8577L172.762 28.5997H174.891C176.061 28.5997 177.021 28.6206 177.021 28.6485C177.021 28.9763 177.231 29.6736 177.566 30.4756C177.907 31.2915 177.966 31.4937 177.922 31.7099C177.856 32.0446 177.689 32.1911 177.326 32.2538C177.05 32.2957 177.021 32.3166 177.021 32.5049V32.7141H182.471V32.5119C182.471 32.3236 182.45 32.3027 182.108 32.2608C181.621 32.198 181.236 31.9191 181.003 31.4519C180.894 31.2427 180.386 30.0572 179.87 28.8089C179.354 27.5607 178.3 25.0293 177.522 23.1813L176.112 19.8131H175.509C174.957 19.8131 174.906 19.8271 174.848 19.9665ZM175.596 25.2176C175.945 26.0962 176.323 26.9679 176.439 27.1492L176.65 27.484H173.089L173.271 27.2538C173.365 27.1353 173.765 26.2218 174.157 25.2315C174.586 24.1437 174.884 23.4672 174.92 23.523C174.949 23.5718 175.255 24.3319 175.596 25.2176Z" fill="white"/>
<path d="M105.145 20.5105H105.53C106.097 20.5174 106.497 20.7127 106.671 21.0823C106.809 21.3682 106.816 21.5774 106.816 26.3543C106.816 31.2008 106.809 31.3333 106.671 31.5983C106.475 31.9679 106.264 32.0865 105.653 32.1771C105.167 32.2538 105.145 32.2678 105.145 32.4491V32.6444H110.959V32.4421C110.959 32.2469 110.944 32.2329 110.566 32.1911C110.348 32.1632 110.072 32.0795 109.941 32.0098C109.527 31.7657 109.505 31.6332 109.505 29.1088C109.498 26.8494 109.491 26.7517 109.251 26.2078C109.2 26.0962 109.382 26.0893 112.478 26.0893C114.28 26.0893 115.755 26.1032 115.755 26.1241C115.755 26.145 115.697 26.2497 115.632 26.3473C115.516 26.5146 115.494 26.8075 115.465 29.0181C115.428 31.3194 115.421 31.5077 115.283 31.7169C115.116 31.9888 114.832 32.1283 114.316 32.198C113.96 32.2399 113.938 32.2538 113.938 32.4421V32.6444H119.825V32.4491C119.825 32.2678 119.803 32.2538 119.316 32.1771C118.706 32.0865 118.495 31.9679 118.299 31.5983C118.161 31.3333 118.154 31.2008 118.154 26.3543C118.154 21.6262 118.161 21.3682 118.292 21.0893C118.372 20.9289 118.517 20.7476 118.612 20.6848C118.757 20.5941 119.447 20.4477 119.774 20.4407C119.803 20.4407 119.825 20.3431 119.825 20.2315V20.0223H113.938V20.2245C113.938 20.4128 113.96 20.4268 114.316 20.4686C114.832 20.5384 115.116 20.6778 115.283 20.9498C115.414 21.152 115.436 21.3473 115.465 22.8814C115.494 24.3668 115.516 24.6248 115.632 24.7852L115.755 24.9735H112.485C110.69 24.9735 109.215 24.9596 109.215 24.9386C109.215 24.9177 109.273 24.8131 109.345 24.7155C109.454 24.5551 109.476 24.2901 109.505 22.8117C109.534 21.6053 109.571 21.0544 109.636 20.9498C109.767 20.7197 110.247 20.5105 110.632 20.5105C110.959 20.5105 110.959 20.5105 110.959 20.2664V20.0223H105.145V20.5105Z" fill="white"/>
<path d="M132.689 20.2315C132.689 20.4059 132.718 20.4407 132.856 20.4407C133.168 20.4407 133.888 20.6569 134.04 20.7964C134.36 21.0823 134.368 21.2566 134.346 26.4728C134.324 31.1102 134.317 31.4379 134.193 31.6541C134.04 31.9261 133.634 32.1213 133.074 32.1911C132.711 32.2399 132.689 32.2469 132.689 32.4421V32.6444H138.721V32.4421C138.721 32.2538 138.699 32.2399 138.343 32.198C137.827 32.1283 137.384 31.9331 137.216 31.696C137.093 31.5146 137.086 31.2148 137.064 26.5077C137.042 21.2566 137.049 21.0823 137.369 20.7964C137.522 20.6569 138.241 20.4407 138.554 20.4407C138.692 20.4407 138.721 20.4059 138.721 20.2315V20.0223H132.689V20.2315Z" fill="white"/>
<path d="M140.392 20.2245C140.392 20.4198 140.414 20.4268 140.777 20.4756C141.33 20.5453 141.715 20.7336 142.013 21.0753C142.253 21.3473 145.407 26.1241 145.407 26.2078C145.407 26.2706 142.187 31.0056 141.955 31.2845C141.657 31.6402 140.916 32.0586 140.414 32.1562C140.058 32.2329 140.029 32.2469 140.029 32.4421V32.6444H144.535V32.4421C144.535 32.2608 144.498 32.2329 144.208 32.1632C143.75 32.0516 143.561 31.8563 143.612 31.5495C143.641 31.41 144.106 30.629 144.738 29.6597C145.821 28.0139 146.01 27.6374 145.937 27.3305C145.901 27.1911 145.908 27.1841 146.003 27.2748C146.206 27.47 148.328 30.901 148.474 31.2636C148.547 31.4589 148.597 31.689 148.576 31.7727C148.532 31.94 148.11 32.1562 147.842 32.1562C147.689 32.1562 147.66 32.1911 147.66 32.3654V32.5746H153.692V32.3724C153.692 32.1841 153.677 32.1771 153.256 32.1353C153.016 32.1074 152.696 32.0377 152.551 31.9819C152.238 31.8563 151.788 31.4589 151.592 31.145C151.519 31.0265 150.719 29.7713 149.811 28.3417L148.161 25.7545L149.651 23.6346C150.472 22.477 151.279 21.3891 151.446 21.2218C151.817 20.8522 152.34 20.5941 152.9 20.4965C153.307 20.4268 153.329 20.4128 153.329 20.2245V20.0223H148.605V20.2245C148.605 20.3989 148.634 20.4338 148.874 20.4756C149.477 20.5802 149.658 20.7894 149.535 21.2357C149.506 21.3473 149.062 22.0377 148.561 22.7629C147.754 23.9066 147.631 24.1297 147.602 24.4226C147.587 24.6109 147.544 24.7643 147.522 24.7643C147.42 24.7643 145.4 21.424 145.356 21.1869C145.298 20.8312 145.545 20.6151 146.126 20.5035C146.548 20.4268 146.57 20.4128 146.57 20.2245V20.0223H140.392V20.2245Z" fill="white"/>
<path d="M155 20.2245C155 20.4198 155.022 20.4268 155.385 20.4756C155.938 20.5453 156.323 20.7336 156.621 21.0753C156.861 21.3473 160.015 26.1241 160.015 26.2078C160.015 26.2706 156.795 31.0056 156.563 31.2845C156.265 31.6402 155.523 32.0586 155.022 32.1562C154.666 32.2329 154.637 32.2469 154.637 32.4421V32.6444H159.143V32.4421C159.143 32.2608 159.106 32.2329 158.816 32.1632C158.358 32.0516 158.169 31.8563 158.22 31.5495C158.249 31.41 158.714 30.629 159.346 29.6597C160.429 28.0139 160.618 27.6374 160.545 27.3305C160.509 27.1911 160.516 27.1841 160.611 27.2748C160.814 27.47 162.936 30.901 163.082 31.2636C163.154 31.4589 163.205 31.689 163.183 31.7727C163.14 31.94 162.718 32.1562 162.449 32.1562C162.297 32.1562 162.268 32.1911 162.268 32.3654V32.5746H168.3V32.3724C168.3 32.1841 168.285 32.1771 167.864 32.1353C167.624 32.1074 167.304 32.0377 167.159 31.9819C166.846 31.8563 166.396 31.4589 166.199 31.145C166.127 31.0265 165.327 29.7713 164.419 28.3417L162.769 25.7545L164.259 23.6346C165.08 22.477 165.887 21.3891 166.054 21.2218C166.425 20.8522 166.948 20.5941 167.508 20.4965C167.914 20.4268 167.936 20.4128 167.936 20.2245V20.0223H163.212V20.2245C163.212 20.3989 163.241 20.4338 163.481 20.4756C164.085 20.5802 164.266 20.7894 164.143 21.2357C164.114 21.3473 163.67 22.0377 163.169 22.7629C162.362 23.9066 162.239 24.1297 162.209 24.4226C162.195 24.6109 162.151 24.7643 162.13 24.7643C162.028 24.7643 160.007 21.424 159.964 21.1869C159.906 20.8312 160.153 20.6151 160.734 20.5035C161.156 20.4268 161.177 20.4128 161.177 20.2245V20.0223H155V20.2245Z" fill="white"/>
<path d="M99.8289 45.064C99.8289 44.7333 99.7809 44.432 99.6849 44.16C99.5942 43.8827 99.4582 43.6453 99.2769 43.448C99.1009 43.2453 98.8849 43.0907 98.6289 42.984C98.3729 42.872 98.0822 42.816 97.7569 42.816C97.0742 42.816 96.5329 43.016 96.1329 43.416C95.7382 43.8107 95.4929 44.36 95.3969 45.064H99.8289ZM100.981 48.864C100.805 49.0773 100.594 49.264 100.349 49.424C100.104 49.5787 99.8395 49.7067 99.5569 49.808C99.2795 49.9093 98.9915 49.984 98.6929 50.032C98.3942 50.0853 98.0982 50.112 97.8049 50.112C97.2449 50.112 96.7275 50.0187 96.2529 49.832C95.7835 49.64 95.3755 49.3627 95.0289 49C94.6875 48.632 94.4209 48.1787 94.2289 47.64C94.0369 47.1013 93.9409 46.4827 93.9409 45.784C93.9409 45.2187 94.0262 44.6907 94.1969 44.2C94.3729 43.7093 94.6235 43.2853 94.9489 42.928C95.2742 42.5653 95.6715 42.2827 96.1409 42.08C96.6102 41.872 97.1382 41.768 97.7249 41.768C98.2102 41.768 98.6582 41.8507 99.0689 42.016C99.4849 42.176 99.8422 42.4107 100.141 42.72C100.445 43.024 100.682 43.4027 100.853 43.856C101.024 44.304 101.109 44.816 101.109 45.392C101.109 45.616 101.085 45.7653 101.037 45.84C100.989 45.9147 100.898 45.952 100.765 45.952H95.3489C95.3649 46.464 95.4342 46.9093 95.5569 47.288C95.6849 47.6667 95.8609 47.984 96.0849 48.24C96.3089 48.4907 96.5755 48.68 96.8849 48.808C97.1942 48.9307 97.5409 48.992 97.9249 48.992C98.2822 48.992 98.5889 48.952 98.8449 48.872C99.1062 48.7867 99.3302 48.696 99.5169 48.6C99.7035 48.504 99.8582 48.416 99.9809 48.336C100.109 48.2507 100.218 48.208 100.309 48.208C100.426 48.208 100.517 48.2533 100.581 48.344L100.981 48.864ZM105.283 50.128C104.643 50.128 104.15 49.9493 103.803 49.592C103.462 49.2347 103.291 48.72 103.291 48.048V43.088H102.315C102.23 43.088 102.158 43.064 102.099 43.016C102.041 42.9627 102.011 42.8827 102.011 42.776V42.208L103.339 42.04L103.667 39.536C103.683 39.456 103.718 39.392 103.771 39.344C103.83 39.2907 103.905 39.264 103.995 39.264H104.715V42.056H107.059V43.088H104.715V47.952C104.715 48.2933 104.798 48.5467 104.963 48.712C105.129 48.8773 105.342 48.96 105.603 48.96C105.753 48.96 105.881 48.9413 105.987 48.904C106.099 48.8613 106.195 48.816 106.275 48.768C106.355 48.72 106.422 48.6773 106.475 48.64C106.534 48.5973 106.585 48.576 106.627 48.576C106.702 48.576 106.769 48.6213 106.827 48.712L107.243 49.392C106.998 49.6213 106.702 49.8027 106.355 49.936C106.009 50.064 105.651 50.128 105.283 50.128ZM109.962 42.976C110.309 42.608 110.693 42.3147 111.114 42.096C111.535 41.8773 112.021 41.768 112.57 41.768C113.013 41.768 113.402 41.8427 113.738 41.992C114.079 42.136 114.362 42.344 114.586 42.616C114.815 42.8827 114.989 43.2053 115.106 43.584C115.223 43.9627 115.282 44.3813 115.282 44.84V50H113.85V44.84C113.85 44.2267 113.709 43.752 113.426 43.416C113.149 43.0747 112.725 42.904 112.154 42.904C111.733 42.904 111.338 43.0053 110.97 43.208C110.607 43.4107 110.271 43.6853 109.962 44.032V50H108.53V38.216H109.962V42.976ZM118.796 43.072C118.972 42.8747 119.158 42.696 119.356 42.536C119.553 42.376 119.761 42.24 119.98 42.128C120.204 42.0107 120.438 41.9227 120.684 41.864C120.934 41.8 121.204 41.768 121.492 41.768C121.934 41.768 122.324 41.8427 122.66 41.992C123.001 42.136 123.284 42.344 123.508 42.616C123.737 42.8827 123.91 43.2053 124.028 43.584C124.145 43.9627 124.204 44.3813 124.204 44.84V50H122.772V44.84C122.772 44.2267 122.63 43.752 122.348 43.416C122.07 43.0747 121.646 42.904 121.076 42.904C120.654 42.904 120.26 43.0053 119.892 43.208C119.529 43.4107 119.193 43.6853 118.884 44.032V50H117.452V41.896H118.308C118.51 41.896 118.636 41.9947 118.684 42.192L118.796 43.072ZM129.79 41.768C130.382 41.768 130.915 41.8667 131.39 42.064C131.864 42.2613 132.27 42.5413 132.606 42.904C132.942 43.2667 133.198 43.7067 133.374 44.224C133.555 44.736 133.646 45.3093 133.646 45.944C133.646 46.584 133.555 47.16 133.374 47.672C133.198 48.184 132.942 48.6213 132.606 48.984C132.27 49.3467 131.864 49.6267 131.39 49.824C130.915 50.016 130.382 50.112 129.79 50.112C129.192 50.112 128.654 50.016 128.174 49.824C127.699 49.6267 127.294 49.3467 126.958 48.984C126.622 48.6213 126.363 48.184 126.182 47.672C126.006 47.16 125.918 46.584 125.918 45.944C125.918 45.3093 126.006 44.736 126.182 44.224C126.363 43.7067 126.622 43.2667 126.958 42.904C127.294 42.5413 127.699 42.2613 128.174 42.064C128.654 41.8667 129.192 41.768 129.79 41.768ZM129.79 49C130.59 49 131.187 48.7333 131.582 48.2C131.976 47.6613 132.174 46.912 132.174 45.952C132.174 44.9867 131.976 44.2347 131.582 43.696C131.187 43.1573 130.59 42.888 129.79 42.888C129.384 42.888 129.03 42.9573 128.726 43.096C128.427 43.2347 128.176 43.4347 127.974 43.696C127.776 43.9573 127.627 44.28 127.526 44.664C127.43 45.0427 127.382 45.472 127.382 45.952C127.382 46.912 127.579 47.6613 127.974 48.2C128.374 48.7333 128.979 49 129.79 49ZM135.324 44.6H139.276V45.808H135.324V44.6ZM147.029 43.336C146.987 43.3947 146.944 43.44 146.901 43.472C146.859 43.504 146.8 43.52 146.725 43.52C146.645 43.52 146.557 43.488 146.461 43.424C146.365 43.3547 146.245 43.28 146.101 43.2C145.963 43.12 145.789 43.048 145.581 42.984C145.379 42.9147 145.128 42.88 144.829 42.88C144.429 42.88 144.077 42.952 143.773 43.096C143.469 43.2347 143.213 43.4373 143.005 43.704C142.803 43.9707 142.648 44.2933 142.541 44.672C142.44 45.0507 142.389 45.4747 142.389 45.944C142.389 46.4347 142.445 46.872 142.557 47.256C142.669 47.6347 142.827 47.9547 143.029 48.216C143.237 48.472 143.485 48.6693 143.773 48.808C144.067 48.9413 144.395 49.008 144.757 49.008C145.104 49.008 145.389 48.968 145.613 48.888C145.837 48.8027 146.021 48.7093 146.165 48.608C146.315 48.5067 146.437 48.416 146.533 48.336C146.635 48.2507 146.733 48.208 146.829 48.208C146.947 48.208 147.037 48.2533 147.101 48.344L147.501 48.864C147.325 49.0827 147.125 49.2693 146.901 49.424C146.677 49.5787 146.435 49.7093 146.173 49.816C145.917 49.9173 145.648 49.992 145.365 50.04C145.083 50.088 144.795 50.112 144.501 50.112C143.995 50.112 143.523 50.0187 143.085 49.832C142.653 49.6453 142.277 49.376 141.957 49.024C141.637 48.6667 141.387 48.2293 141.205 47.712C141.024 47.1947 140.933 46.6053 140.933 45.944C140.933 45.3413 141.016 44.784 141.181 44.272C141.352 43.76 141.597 43.32 141.917 42.952C142.243 42.5787 142.64 42.288 143.109 42.08C143.584 41.872 144.128 41.768 144.741 41.768C145.312 41.768 145.813 41.8613 146.245 42.048C146.683 42.2293 147.069 42.488 147.405 42.824L147.029 43.336ZM154.313 45.064C154.313 44.7333 154.265 44.432 154.169 44.16C154.079 43.8827 153.943 43.6453 153.761 43.448C153.585 43.2453 153.369 43.0907 153.113 42.984C152.857 42.872 152.567 42.816 152.241 42.816C151.559 42.816 151.017 43.016 150.617 43.416C150.223 43.8107 149.977 44.36 149.881 45.064H154.313ZM155.465 48.864C155.289 49.0773 155.079 49.264 154.833 49.424C154.588 49.5787 154.324 49.7067 154.041 49.808C153.764 49.9093 153.476 49.984 153.177 50.032C152.879 50.0853 152.583 50.112 152.289 50.112C151.729 50.112 151.212 50.0187 150.737 49.832C150.268 49.64 149.86 49.3627 149.513 49C149.172 48.632 148.905 48.1787 148.713 47.64C148.521 47.1013 148.425 46.4827 148.425 45.784C148.425 45.2187 148.511 44.6907 148.681 44.2C148.857 43.7093 149.108 43.2853 149.433 42.928C149.759 42.5653 150.156 42.2827 150.625 42.08C151.095 41.872 151.623 41.768 152.209 41.768C152.695 41.768 153.143 41.8507 153.553 42.016C153.969 42.176 154.327 42.4107 154.625 42.72C154.929 43.024 155.167 43.4027 155.337 43.856C155.508 44.304 155.593 44.816 155.593 45.392C155.593 45.616 155.569 45.7653 155.521 45.84C155.473 45.9147 155.383 45.952 155.249 45.952H149.833C149.849 46.464 149.919 46.9093 150.041 47.288C150.169 47.6667 150.345 47.984 150.569 48.24C150.793 48.4907 151.06 48.68 151.369 48.808C151.679 48.9307 152.025 48.992 152.409 48.992C152.767 48.992 153.073 48.952 153.329 48.872C153.591 48.7867 153.815 48.696 154.001 48.6C154.188 48.504 154.343 48.416 154.465 48.336C154.593 48.2507 154.703 48.208 154.793 48.208C154.911 48.208 155.001 48.2533 155.065 48.344L155.465 48.864ZM158.686 43.072C158.862 42.8747 159.049 42.696 159.246 42.536C159.444 42.376 159.652 42.24 159.87 42.128C160.094 42.0107 160.329 41.9227 160.574 41.864C160.825 41.8 161.094 41.768 161.382 41.768C161.825 41.768 162.214 41.8427 162.55 41.992C162.892 42.136 163.174 42.344 163.398 42.616C163.628 42.8827 163.801 43.2053 163.918 43.584C164.036 43.9627 164.094 44.3813 164.094 44.84V50H162.662V44.84C162.662 44.2267 162.521 43.752 162.238 43.416C161.961 43.0747 161.537 42.904 160.966 42.904C160.545 42.904 160.15 43.0053 159.782 43.208C159.42 43.4107 159.084 43.6853 158.774 44.032V50H157.342V41.896H158.198C158.401 41.896 158.526 41.9947 158.574 42.192L158.686 43.072ZM168.643 50.128C168.003 50.128 167.51 49.9493 167.163 49.592C166.822 49.2347 166.651 48.72 166.651 48.048V43.088H165.675C165.59 43.088 165.518 43.064 165.459 43.016C165.4 42.9627 165.371 42.8827 165.371 42.776V42.208L166.699 42.04L167.027 39.536C167.043 39.456 167.078 39.392 167.131 39.344C167.19 39.2907 167.264 39.264 167.355 39.264H168.075V42.056H170.419V43.088H168.075V47.952C168.075 48.2933 168.158 48.5467 168.323 48.712C168.488 48.8773 168.702 48.96 168.963 48.96C169.112 48.96 169.24 48.9413 169.347 48.904C169.459 48.8613 169.555 48.816 169.635 48.768C169.715 48.72 169.782 48.6773 169.835 48.64C169.894 48.5973 169.944 48.576 169.987 48.576C170.062 48.576 170.128 48.6213 170.187 48.712L170.603 49.392C170.358 49.6213 170.062 49.8027 169.715 49.936C169.368 50.064 169.011 50.128 168.643 50.128ZM177.266 45.064C177.266 44.7333 177.218 44.432 177.122 44.16C177.032 43.8827 176.896 43.6453 176.714 43.448C176.538 43.2453 176.322 43.0907 176.066 42.984C175.81 42.872 175.52 42.816 175.194 42.816C174.512 42.816 173.97 43.016 173.57 43.416C173.176 43.8107 172.93 44.36 172.834 45.064H177.266ZM178.418 48.864C178.242 49.0773 178.032 49.264 177.786 49.424C177.541 49.5787 177.277 49.7067 176.994 49.808C176.717 49.9093 176.429 49.984 176.13 50.032C175.832 50.0853 175.536 50.112 175.242 50.112C174.682 50.112 174.165 50.0187 173.69 49.832C173.221 49.64 172.813 49.3627 172.466 49C172.125 48.632 171.858 48.1787 171.666 47.64C171.474 47.1013 171.378 46.4827 171.378 45.784C171.378 45.2187 171.464 44.6907 171.634 44.2C171.81 43.7093 172.061 43.2853 172.386 42.928C172.712 42.5653 173.109 42.2827 173.578 42.08C174.048 41.872 174.576 41.768 175.162 41.768C175.648 41.768 176.096 41.8507 176.506 42.016C176.922 42.176 177.28 42.4107 177.578 42.72C177.882 43.024 178.12 43.4027 178.29 43.856C178.461 44.304 178.546 44.816 178.546 45.392C178.546 45.616 178.522 45.7653 178.474 45.84C178.426 45.9147 178.336 45.952 178.202 45.952H172.786C172.802 46.464 172.872 46.9093 172.994 47.288C173.122 47.6667 173.298 47.984 173.522 48.24C173.746 48.4907 174.013 48.68 174.322 48.808C174.632 48.9307 174.978 48.992 175.362 48.992C175.72 48.992 176.026 48.952 176.282 48.872C176.544 48.7867 176.768 48.696 176.954 48.6C177.141 48.504 177.296 48.416 177.418 48.336C177.546 48.2507 177.656 48.208 177.746 48.208C177.864 48.208 177.954 48.2533 178.018 48.344L178.418 48.864ZM181.647 43.52C181.903 42.9653 182.218 42.5333 182.591 42.224C182.965 41.9093 183.421 41.752 183.959 41.752C184.13 41.752 184.293 41.7707 184.447 41.808C184.607 41.8453 184.749 41.904 184.871 41.984L184.767 43.048C184.735 43.1813 184.655 43.248 184.527 43.248C184.453 43.248 184.343 43.232 184.199 43.2C184.055 43.168 183.893 43.152 183.711 43.152C183.455 43.152 183.226 43.1893 183.023 43.264C182.826 43.3387 182.647 43.4507 182.487 43.6C182.333 43.744 182.191 43.9253 182.063 44.144C181.941 44.3573 181.829 44.6027 181.727 44.88V50H180.295V41.896H181.111C181.266 41.896 181.373 41.9253 181.431 41.984C181.49 42.0427 181.53 42.144 181.551 42.288L181.647 43.52Z" fill="white"/>
<defs>
<linearGradient id="paint0_linear_922_1374" x1="43.6401" y1="0.999024" x2="43.6401" y2="36.5073" gradientUnits="userSpaceOnUse">
<stop stop-color="white"/>
<stop offset="1" stop-color="white" stop-opacity="0"/>
</linearGradient>
</defs>
</svg>
