<svg width="201" height="54" viewBox="0 0 201 54" fill="none" xmlns="http://www.w3.org/2000/svg">
<path d="M42.4942 1.77821C40.8423 2.18682 39.5382 3.23878 38.834 4.71674C38.7123 4.99494 38.5211 5.6209 38.4167 6.10776L38.2342 7.00323L38.4167 7.8987C38.6776 9.1767 39.0253 9.83743 39.886 10.7068C40.3642 11.185 40.7728 11.498 41.1901 11.7153C41.8334 12.0457 42.6854 12.3065 43.1288 12.3065C43.2766 12.3065 43.4157 12.3413 43.4418 12.376C43.4592 12.4108 43.4331 12.6629 43.3809 12.9325C43.294 13.3498 43.2245 13.4628 42.9723 13.628C42.1377 14.1931 42.0334 15.3059 42.7637 15.9145L42.9723 16.097L42.8071 17.0012C42.0247 21.2264 40.9467 23.9998 39.6165 25.156C39.347 25.3995 38.9297 25.6255 38.3298 25.8603C35.1044 27.1122 32.0876 28.8423 29.7576 30.7723C27.0104 33.0501 24.9151 35.7278 23.6893 38.5185C23.3589 39.2836 22.8982 40.5877 22.7156 41.3093L22.6287 41.6744L21.4724 42.1265C15.0302 44.6738 9.66608 48.0731 5.19743 52.4201C4.62363 52.9852 4.21502 53.4112 4.28457 53.3764C4.35412 53.3329 4.84967 52.9852 5.3713 52.5939C8.29245 50.4292 12.3873 48.0644 15.9518 46.4821C22.7156 43.4914 29.6533 41.7527 37.756 41.0224C40.199 40.805 46.815 40.805 49.2754 41.0224C57.7693 41.7874 65.0722 43.6827 72.0968 46.9516C75.3831 48.4817 79.1215 50.69 81.6862 52.6113C82.173 52.9852 82.6338 53.3242 82.7034 53.3677C83.0511 53.6111 80.9646 51.5681 80.0517 50.7769C76.0091 47.2646 71.0796 44.3 65.8459 42.2482C65.2895 42.0222 64.8114 41.8222 64.7679 41.7874C64.7331 41.7527 64.6114 41.3701 64.4897 40.9441C63.516 37.2927 61.1338 33.7717 57.7519 30.9375C55.5002 29.0509 52.3443 27.2078 49.3189 25.9994C48.1191 25.5212 48.0322 25.4603 47.4758 24.9126C46.9889 24.4171 46.8063 24.1476 46.3716 23.2521C45.6153 21.6785 45.0676 19.8702 44.5807 17.3229L44.346 16.1231L44.572 15.9492C44.9111 15.6884 45.0589 15.332 45.0589 14.8103C45.0589 14.2452 44.8241 13.854 44.3199 13.5671C44.0069 13.4019 43.9634 13.3324 43.9113 12.9498C43.8765 12.7151 43.8591 12.4804 43.8765 12.4282C43.8939 12.376 44.1199 12.3065 44.3807 12.2804C45.4153 12.1761 46.6064 11.6023 47.4062 10.8285C48.293 9.96784 48.9276 8.62029 49.0146 7.40315L49.058 6.87282L48.8929 7.35968C48.293 9.20278 46.7455 10.4112 44.8415 10.5416C42.2247 10.7155 39.9382 8.41164 40.1381 5.78609C40.2251 4.56025 40.6771 3.6387 41.6074 2.778C42.1029 2.31723 43.0158 1.7869 43.3201 1.7869C43.3896 1.7869 43.5114 1.74343 43.5809 1.69996C43.7896 1.56086 43.181 1.60433 42.4942 1.77821ZM47.7105 36.6146C51.7184 36.9363 56.0305 37.9534 59.5342 39.4053C60.447 39.7792 62.7074 40.9354 62.7074 41.0224C62.7074 41.0658 62.6379 41.0832 62.5596 41.0572C57.2651 39.3966 52.7964 38.5446 47.6236 38.2143C45.6414 38.0838 41.2944 38.0838 39.3644 38.2143C34.7566 38.5185 30.0011 39.3705 25.8541 40.6138C25.3151 40.779 24.8543 40.9007 24.8282 40.8833C24.7239 40.779 27.4103 39.5096 29.0187 38.9098C34.5219 36.858 40.938 36.0669 47.7105 36.6146Z" fill="#AC9676"/>
<path d="M84.5996 36.1251V34.4326H83.4006C83.8471 33.904 84.097 33.2311 84.1065 32.5324C84.1065 31.602 83.7052 30.8399 82.3757 30.2956C82.1297 30.2149 81.9029 30.0825 81.7098 29.907C81.5167 29.7314 81.3614 29.5166 81.254 29.2761C81.3797 29.2761 81.4764 29.2069 81.4764 29.1326C81.4764 29.0584 81.3894 29.0188 81.2831 28.9941V28.4992C81.3169 28.4992 81.3459 28.4695 81.3459 28.4398C81.3459 28.4101 81.3169 28.4002 81.2782 28.3854V27.8905C81.4555 27.94 81.6424 27.94 81.8197 27.8905C81.9477 27.8459 82.0658 27.7757 82.167 27.6839C82.2683 27.5922 82.3507 27.4807 82.4095 27.3561C82.312 27.4425 82.1986 27.5082 82.0759 27.5491C81.8858 27.615 81.681 27.6221 81.487 27.5694C81.2929 27.5167 81.1184 27.4066 80.9853 27.2528C80.8521 27.0991 80.7662 26.9086 80.7384 26.7051C80.7105 26.5017 80.7419 26.2943 80.8286 26.109C80.6742 26.2438 80.5631 26.4231 80.5096 26.6234C80.4561 26.8238 80.4628 27.036 80.5288 27.2324C80.5832 27.3938 80.6764 27.5387 80.7997 27.6537C80.923 27.7687 81.0726 27.8501 81.2347 27.8905L81.2057 28.4151C81.1573 28.4151 81.1235 28.4448 81.1235 28.4695C81.1235 28.4943 81.1574 28.519 81.2009 28.5289L81.1719 29.0238C81.0607 29.0238 80.9688 29.0931 80.9688 29.1623C80.9688 29.2316 81.0752 29.2959 81.2057 29.3058C81.0998 29.5473 80.9451 29.763 80.7518 29.9388C80.5584 30.1145 80.3308 30.2462 80.0841 30.3253C79.7342 30.4655 79.408 30.6609 79.1171 30.9043L78.9479 25.4311H79.0784L79.7456 24.4413H78.9189L78.7062 18.8642H78.8464L79.4072 17.8448H78.6578L78.5756 15.1824C78.6917 15.077 78.7846 14.9474 78.8479 14.8023C78.9113 14.6573 78.9437 14.5001 78.9431 14.3412C78.9431 13.8215 78.1889 13.3861 77.9278 13.2525C77.9582 13.2375 77.9841 13.2144 78.0028 13.1857C78.0215 13.157 78.0323 13.1236 78.0341 13.0892C78.0318 13.0508 78.018 13.0141 77.9947 12.9841C77.9713 12.954 77.9396 12.9319 77.9036 12.9209V12.2825C77.9228 12.2742 77.9394 12.2605 77.9513 12.243C77.9633 12.2255 77.9702 12.2049 77.9713 12.1836C77.9696 12.1611 77.9619 12.1396 77.9492 12.1213C77.9364 12.103 77.919 12.0886 77.8988 12.0796V11.758C77.9975 11.7608 78.0949 11.7354 78.1803 11.6847C78.2657 11.634 78.3356 11.56 78.3822 11.4709C78.3029 11.5124 78.2151 11.5344 78.126 11.5353C78.0577 11.5359 77.9899 11.5227 77.9266 11.4964C77.8632 11.4701 77.8056 11.4312 77.7571 11.382C77.7085 11.3327 77.67 11.2741 77.6437 11.2096C77.6174 11.145 77.6039 11.0757 77.6039 11.0058C77.606 10.9043 77.6344 10.8053 77.6861 10.7188C77.5934 10.7626 77.5148 10.8323 77.4592 10.9198C77.4036 11.0074 77.3733 11.1092 77.3718 11.2136C77.3729 11.3443 77.42 11.4702 77.5043 11.5683C77.5886 11.6665 77.7046 11.7303 77.8311 11.7481V12.0796C77.8115 12.0888 77.7948 12.1034 77.7828 12.1217C77.7709 12.1401 77.7642 12.1615 77.7634 12.1836C77.7646 12.2042 77.7709 12.2242 77.782 12.2416C77.793 12.259 77.8083 12.2731 77.8263 12.2825V12.9209C77.7923 12.9307 77.7621 12.9508 77.7396 12.9786C77.7171 13.0064 77.7034 13.0405 77.7002 13.0765C77.6971 13.1124 77.7047 13.1485 77.722 13.1799C77.7393 13.2113 77.7656 13.2366 77.7972 13.2525C77.5362 13.3861 76.782 13.8215 76.782 14.3412C76.7825 14.4999 76.8155 14.6567 76.8788 14.8016C76.9421 14.9464 77.0342 15.0762 77.1494 15.1824L77.0672 17.8448H76.2888L76.8497 18.8642H76.9947L76.8206 24.3869H75.9987L76.6611 25.3766H76.7916L76.6224 30.8993H76.5983C76.3822 30.3675 76.032 29.904 75.5835 29.5562C75.1349 29.2084 74.6042 28.9888 74.0455 28.9198C74.0477 28.9067 74.0477 28.8934 74.0455 28.8803C74.0455 28.717 73.8377 28.5734 73.7216 28.5091L73.6878 26.6682C73.6867 26.6555 73.6812 26.6435 73.6724 26.6345C73.6636 26.6254 73.6519 26.6198 73.6394 26.6187C73.6275 26.62 73.6164 26.6257 73.6083 26.6349C73.6003 26.644 73.5958 26.6559 73.5959 26.6682L73.5621 28.5091C73.4412 28.5734 73.2382 28.717 73.2382 28.8803C73.2382 28.8803 73.2382 28.905 73.2382 28.9198C72.8285 28.9711 72.4327 29.1045 72.0734 29.3126C71.7142 29.5206 71.3986 29.7992 71.1447 30.1323V26.3367C71.1447 26.0348 71.3961 25.1985 70.9465 24.476C70.2213 23.318 68.5292 22.8033 67.6686 22.165C67.6836 22.122 67.6918 22.0769 67.6928 22.0313C67.6927 21.9596 67.672 21.8895 67.6334 21.8297C67.5947 21.7698 67.5397 21.7229 67.4752 21.6948L67.4124 19.8242C67.4111 19.8067 67.4035 19.7904 67.3909 19.7784C67.3784 19.7665 67.3618 19.7599 67.3447 19.7599C67.336 19.7592 67.3273 19.7604 67.3191 19.7633C67.3109 19.7662 67.3034 19.7709 67.2971 19.7769C67.2907 19.783 67.2857 19.7903 67.2822 19.7984C67.2787 19.8066 67.277 19.8154 67.277 19.8242L67.2141 21.6948C67.1484 21.7216 67.092 21.768 67.0524 21.8281C67.0127 21.8881 66.9916 21.9589 66.9918 22.0313C66.9921 22.0775 67.002 22.123 67.0208 22.165C66.2085 22.7637 64.6856 23.2586 63.8975 24.278L63.6993 17.8448H63.854L64.6663 16.6076H63.6607L63.4818 9.89728H63.6558L64.3423 8.65517H63.4431L63.3464 5.41876C63.4881 5.28943 63.6015 5.13083 63.679 4.95342C63.7565 4.776 63.7964 4.58379 63.796 4.38944C63.796 3.76097 62.8774 3.23146 62.5584 3.06816C62.5947 3.04965 62.6255 3.02153 62.6476 2.98672C62.6697 2.95191 62.6823 2.91169 62.6841 2.87021C62.6819 2.82288 62.6654 2.77742 62.6368 2.74016C62.6082 2.7029 62.5689 2.67571 62.5245 2.66237V1.89038C62.5471 1.87829 62.5664 1.86067 62.5808 1.83908C62.5951 1.8175 62.604 1.79262 62.6067 1.76666C62.6056 1.73959 62.5968 1.71344 62.5813 1.69146C62.5658 1.66947 62.5444 1.6526 62.5197 1.64295V1.26685C62.6348 1.26298 62.7469 1.22797 62.8446 1.16539C62.9422 1.10281 63.022 1.01488 63.0757 0.91055C62.9768 0.966744 62.8648 0.994128 62.7517 0.989728C62.5863 0.987147 62.4284 0.918385 62.3118 0.798156C62.1953 0.677926 62.1293 0.515778 62.1281 0.346405C62.1289 0.224088 62.1624 0.104329 62.2248 0C62.112 0.0530886 62.0165 0.13821 61.9497 0.245239C61.8828 0.352268 61.8474 0.4767 61.8477 0.603734C61.8487 0.761639 61.9056 0.913808 62.0078 1.03208C62.11 1.15035 62.2506 1.22672 62.4036 1.24706V1.65779C62.3801 1.66868 62.3601 1.686 62.3456 1.70782C62.3311 1.72965 62.3227 1.75515 62.3215 1.78151C62.3228 1.80723 62.3306 1.83216 62.3441 1.85385C62.3577 1.87554 62.3765 1.89324 62.3988 1.90523V2.67721C62.3549 2.69076 62.3163 2.71814 62.2885 2.75547C62.2608 2.79279 62.2452 2.83815 62.2441 2.88506C62.2459 2.92653 62.2585 2.96676 62.2806 3.00157C62.3027 3.03638 62.3335 3.06449 62.3698 3.083C62.0507 3.24631 61.1321 3.77581 61.1321 4.40429C61.1318 4.59863 61.1717 4.79084 61.2492 4.96826C61.3267 5.14568 61.44 5.30428 61.5817 5.43361L61.4802 8.67002H60.5761L61.2578 9.89728H61.4319L61.2288 16.6175H60.2232L61.0354 17.8547H61.1901L61.0209 23.2982C60.3779 22.0957 58.6568 21.4276 57.743 20.6012C57.7683 20.5454 57.7815 20.4846 57.7817 20.423C57.781 20.3275 57.7499 20.2349 57.6932 20.159C57.6365 20.0831 57.5573 20.0282 57.4674 20.0024L57.4046 17.3697C57.4053 17.3615 57.4043 17.3533 57.4016 17.3455C57.399 17.3377 57.3949 17.3305 57.3894 17.3245C57.3839 17.3184 57.3773 17.3136 57.3699 17.3103C57.3626 17.307 57.3546 17.3054 57.3466 17.3054C57.3297 17.3064 57.3138 17.3134 57.3014 17.3251C57.2891 17.3368 57.2811 17.3526 57.2789 17.3697L57.216 20.0024C57.1267 20.0283 57.0481 20.0835 56.9922 20.1594C56.9363 20.2354 56.9063 20.328 56.9066 20.423C56.9068 20.4846 56.92 20.5454 56.9453 20.6012C56.1186 21.3435 54.6343 21.9571 53.8753 22.9468L53.7157 17.8151H53.8173L54.3684 16.9738H53.6867L53.5465 12.4211H53.6674L54.1509 11.5848H53.5465L53.4547 9.40241C53.5497 9.31498 53.6259 9.2082 53.6784 9.0889C53.7308 8.9696 53.7584 8.84042 53.7592 8.70961C53.7592 8.27907 53.1404 7.92277 52.9228 7.8139C52.9471 7.80135 52.9675 7.78228 52.982 7.75875C52.9965 7.73521 53.0044 7.70809 53.005 7.68029C53.0043 7.64794 52.9937 7.61665 52.9746 7.59087C52.9555 7.5651 52.9289 7.54616 52.8987 7.53678V7.01222C52.9141 7.00431 52.9271 6.99234 52.9364 6.97756C52.9458 6.96277 52.9511 6.94569 52.9519 6.9281C52.9512 6.90982 52.9454 6.89212 52.9351 6.87718C52.9248 6.86224 52.9105 6.8507 52.8938 6.84397V6.57674C52.9722 6.57467 53.0487 6.55165 53.1157 6.50999C53.1827 6.46832 53.2379 6.40945 53.2758 6.33921C53.2108 6.37677 53.1377 6.39718 53.063 6.39859C52.9858 6.39864 52.91 6.37741 52.8435 6.33713C52.7771 6.29684 52.7225 6.239 52.6854 6.16965C52.6483 6.10031 52.6301 6.02203 52.6328 5.94302C52.6354 5.86402 52.6588 5.7872 52.7004 5.72063C52.6241 5.7572 52.5595 5.81523 52.5141 5.88795C52.4687 5.96067 52.4445 6.04508 52.4442 6.13136C52.4446 6.23848 52.4831 6.34178 52.5525 6.42193C52.6219 6.50209 52.7175 6.55361 52.8213 6.56684V6.84397C52.8047 6.8507 52.7904 6.86224 52.7801 6.87718C52.7697 6.89212 52.7639 6.90982 52.7633 6.9281C52.7635 6.94582 52.7686 6.96313 52.778 6.97801C52.7874 6.9929 52.8008 7.00476 52.8165 7.01222V7.53678C52.7862 7.54616 52.7597 7.5651 52.7406 7.59087C52.7214 7.61665 52.7108 7.64794 52.7101 7.68029C52.7117 7.70786 52.72 7.73457 52.7344 7.75794C52.7488 7.7813 52.7687 7.80056 52.7923 7.8139C52.5796 7.92277 51.9559 8.27907 51.9559 8.70961C51.9565 8.84095 51.9844 8.97066 52.0377 9.09011C52.0911 9.20956 52.1687 9.31602 52.2653 9.40241L52.1976 11.5996H51.5885L52.0719 12.4359H52.188L52.0478 16.9887H51.3661L51.9172 17.8299H52.0236L51.9269 20.9129C51.9269 20.8684 51.9269 20.8189 51.8931 20.7793C50.6941 17.7458 46.3042 16.2513 44.2881 14.2422C44.3539 14.125 44.3857 13.9912 44.38 13.8562C44.3787 13.6971 44.3271 13.5427 44.233 13.416C44.1389 13.2894 44.0073 13.1973 43.8578 13.1535L43.7756 9.75872H43.8288C44.3864 9.76003 44.9335 9.60419 45.4102 9.30827C45.8869 9.01235 46.2748 8.58779 46.5314 8.08113C46.0876 8.33394 45.5889 8.46838 45.081 8.47207C44.6889 8.47207 44.3006 8.39293 43.9383 8.23918C43.5761 8.08543 43.247 7.86008 42.97 7.57603C42.6929 7.29198 42.4733 6.9548 42.3237 6.58378C42.1741 6.21277 42.0974 5.81519 42.098 5.41381C42.1025 4.83476 42.2704 4.26937 42.5815 3.78571C41.9723 4.07054 41.4719 4.5529 41.1576 5.15817C40.8433 5.76344 40.7326 6.45786 40.8427 7.134C40.9528 7.81013 41.2775 8.43028 41.7666 8.89849C42.2557 9.3667 42.882 9.65686 43.5484 9.72408L43.413 13.1485C43.2696 13.1988 43.1455 13.2945 43.0586 13.4217C42.9717 13.5489 42.9265 13.701 42.9296 13.8562C42.9316 13.9882 42.9701 14.1169 43.0408 14.2273C40.9957 16.2266 36.6155 17.7211 35.4165 20.7546C35.4165 20.814 35.3875 20.8783 35.3681 20.9377L35.2714 17.8151H35.3778L35.9241 16.9738H35.2473L35.1071 12.4211H35.2231L35.7066 11.5848H35.0781L35.0104 9.40241C35.1064 9.31577 35.1832 9.20915 35.2358 9.08968C35.2883 8.9702 35.3153 8.84062 35.315 8.70961C35.315 8.27907 34.6961 7.92277 34.4786 7.8139C34.5034 7.80159 34.5245 7.78272 34.5398 7.75922C34.5551 7.73573 34.564 7.70848 34.5656 7.68029C34.5639 7.64752 34.5522 7.61612 34.5323 7.59041C34.5124 7.5647 34.4852 7.54596 34.4544 7.53678V7.01222C34.471 7.0055 34.4853 6.99395 34.4956 6.97901C34.506 6.96407 34.5118 6.94637 34.5124 6.9281C34.5107 6.91012 34.5045 6.89291 34.4943 6.87816C34.4841 6.86341 34.4704 6.85162 34.4544 6.84397V6.57674C34.5324 6.57585 34.6087 6.55327 34.6751 6.51144C34.7415 6.4696 34.7956 6.41007 34.8315 6.33921C34.7665 6.37677 34.6934 6.39718 34.6188 6.39859C34.5046 6.39859 34.3952 6.35219 34.3145 6.26959C34.2338 6.187 34.1885 6.07497 34.1885 5.95816C34.191 5.87439 34.2143 5.79266 34.2562 5.72063C34.1798 5.7572 34.1152 5.81523 34.0698 5.88795C34.0245 5.96067 34.0002 6.04508 33.9999 6.13136C34.0013 6.23818 34.0402 6.34092 34.1094 6.42086C34.1786 6.5008 34.2736 6.55261 34.377 6.56684V6.84397C34.3617 6.85188 34.3486 6.86385 34.3393 6.87863C34.3299 6.89342 34.3246 6.9105 34.3238 6.9281C34.3234 6.94596 34.3283 6.96354 34.3378 6.97854C34.3473 6.99354 34.3609 7.00528 34.377 7.01222V7.53678C34.3477 7.54701 34.3222 7.56631 34.304 7.59201C34.2858 7.61772 34.2758 7.64856 34.2755 7.68029C34.2759 7.70751 34.2838 7.73405 34.2983 7.75683C34.3129 7.77962 34.3335 7.79769 34.3577 7.80895C34.1401 7.92277 33.5213 8.27907 33.5213 8.70961C33.521 8.84062 33.548 8.9702 33.6005 9.08968C33.653 9.20915 33.7299 9.31577 33.8259 9.40241L33.7437 11.5749H33.1345L33.618 12.4112H33.7437L33.6035 16.9639H32.8976L33.4488 17.8151H33.5503L33.3908 22.9666C32.6317 21.9769 31.1571 21.3732 30.3352 20.6358C30.3606 20.58 30.3738 20.5192 30.3739 20.4577C30.3732 20.3622 30.3421 20.2695 30.2854 20.1936C30.2288 20.1177 30.1495 20.0628 30.0597 20.037L29.9968 17.4044C29.9968 17.3959 29.9952 17.3876 29.992 17.3797C29.9889 17.3719 29.9842 17.3648 29.9784 17.3589C29.9726 17.3529 29.9656 17.3482 29.958 17.3449C29.9504 17.3417 29.9422 17.34 29.934 17.34C29.9259 17.34 29.918 17.3417 29.9106 17.345C29.9032 17.3483 29.8966 17.3531 29.8911 17.3591C29.8857 17.3652 29.8815 17.3723 29.8789 17.3801C29.8763 17.3879 29.8753 17.3962 29.8759 17.4044L29.8131 20.037C29.7232 20.0628 29.644 20.1177 29.5873 20.1936C29.5306 20.2695 29.4996 20.3622 29.4988 20.4577C29.499 20.5192 29.5122 20.58 29.5375 20.6358C28.6189 21.4622 26.9026 22.1204 26.2596 23.3378L26.0904 17.8943H26.2451L27.0573 16.6571H26.0517L25.8438 9.89728H26.0082L26.6899 8.65517H25.8052L25.7085 5.4435C25.8502 5.31417 25.9635 5.15558 26.041 4.97816C26.1185 4.80074 26.1584 4.60853 26.1581 4.41419C26.1581 3.78571 25.2395 3.2562 24.9204 3.0929C24.9618 3.07598 24.9968 3.04588 25.0203 3.00703C25.0437 2.96818 25.0543 2.92265 25.0505 2.87716C25.0467 2.83167 25.0287 2.78864 24.9992 2.75442C24.9697 2.72019 24.9302 2.6966 24.8866 2.68711V1.91512C24.9097 1.9038 24.9296 1.88637 24.944 1.86464C24.9584 1.8429 24.967 1.81763 24.9688 1.79141C24.9677 1.76434 24.9588 1.73819 24.9434 1.7162C24.9279 1.69421 24.9065 1.67735 24.8817 1.66769V1.26685C24.9969 1.26298 25.109 1.22797 25.2066 1.16539C25.3043 1.10281 25.384 1.01488 25.4377 0.91055C25.3436 0.965887 25.2369 0.9949 25.1283 0.994677C25.0447 0.99533 24.9618 0.979044 24.8844 0.946757C24.807 0.914471 24.7367 0.866823 24.6773 0.806561C24.618 0.746298 24.5709 0.674612 24.5388 0.595636C24.5067 0.51666 24.4901 0.431955 24.4901 0.346405C24.4886 0.223752 24.5222 0.103336 24.5868 0C24.4596 0.0588645 24.3545 0.158517 24.2875 0.283899C24.2205 0.40928 24.1952 0.553578 24.2154 0.694986C24.2356 0.836395 24.3002 0.96723 24.3995 1.06772C24.4988 1.16821 24.6273 1.2329 24.7657 1.25201V1.65779C24.741 1.66745 24.7195 1.68431 24.7041 1.7063C24.6886 1.72829 24.6798 1.75444 24.6787 1.78151C24.68 1.80723 24.6878 1.83216 24.7014 1.85385C24.7149 1.87554 24.7338 1.89324 24.756 1.90523V2.67721C24.7121 2.69076 24.6735 2.71814 24.6458 2.75547C24.618 2.79279 24.6024 2.83815 24.6013 2.88506C24.6031 2.92653 24.6157 2.96676 24.6378 3.00157C24.6599 3.03638 24.6907 3.06449 24.727 3.083C24.4079 3.24631 23.4893 3.77581 23.4893 4.40429C23.4852 4.5988 23.5214 4.79201 23.5956 4.97114C23.6697 5.15028 23.7802 5.31128 23.9196 5.4435L23.8181 8.67991H22.9382L23.6199 9.89728H23.7988L23.5909 16.6324H22.5853L23.3975 17.8695H23.5522L23.354 24.3028C22.5708 23.2586 21.043 22.7637 20.2308 22.165C20.2496 22.123 20.2594 22.0775 20.2598 22.0313C20.26 21.9589 20.2388 21.8881 20.1992 21.8281C20.1595 21.768 20.1031 21.7216 20.0374 21.6948L19.9745 19.8242C19.9745 19.8072 19.9679 19.7908 19.9561 19.7788C19.9443 19.7667 19.9284 19.7599 19.9117 19.7599C19.9028 19.7592 19.8939 19.7604 19.8854 19.7632C19.8769 19.7661 19.8691 19.7707 19.8624 19.7767C19.8556 19.7826 19.8501 19.7899 19.8461 19.7981C19.8421 19.8063 19.8398 19.8151 19.8392 19.8242L19.7763 21.6948C19.7118 21.7229 19.6568 21.7698 19.6182 21.8297C19.5795 21.8895 19.5588 21.9596 19.5588 22.0313C19.5598 22.0769 19.5679 22.122 19.5829 22.165C18.7175 22.8033 17.0254 23.318 16.3002 24.476C15.8554 25.1985 16.1068 26.0348 16.1068 26.3367V30.1521C15.8529 29.819 15.5373 29.5404 15.1781 29.3324C14.8189 29.1243 14.4231 28.9909 14.0134 28.9396C14.0134 28.9396 14.0134 28.9396 14.0134 28.9001C14.0134 28.7367 13.8055 28.5932 13.6895 28.5289L13.6556 26.688C13.6556 26.6749 13.6505 26.6623 13.6415 26.653C13.6324 26.6437 13.6201 26.6385 13.6073 26.6385C13.5957 26.6407 13.5851 26.6467 13.5773 26.6557C13.5694 26.6646 13.5646 26.676 13.5638 26.688L13.5299 28.5289C13.4139 28.5932 13.206 28.7367 13.206 28.9001C13.206 28.9001 13.206 28.9248 13.206 28.9396C12.635 29.0133 12.0942 29.2441 11.6413 29.6075C11.1884 29.9709 10.8402 30.4533 10.6339 31.0032L10.4647 25.4014H10.5904L11.2576 24.4116H10.4406L10.2713 18.889H10.4164L10.9772 17.8695H10.2423L10.1601 15.2072C10.2796 15.1008 10.3752 14.9692 10.4403 14.8214C10.5054 14.6736 10.5385 14.5132 10.5372 14.3511C10.5372 13.8314 9.78304 13.396 9.52197 13.2624C9.55113 13.2463 9.57578 13.2229 9.59356 13.1943C9.61134 13.1657 9.62165 13.1329 9.62349 13.099C9.62113 13.0607 9.60735 13.024 9.58401 12.994C9.56068 12.9639 9.5289 12.9418 9.49296 12.9308V12.2924C9.51095 12.283 9.52622 12.2689 9.53725 12.2515C9.54827 12.2341 9.55467 12.2141 9.55581 12.1934C9.55507 12.1714 9.54834 12.15 9.53639 12.1316C9.52443 12.1133 9.50772 12.0987 9.48812 12.0895V11.7679C9.5827 11.7662 9.67512 11.7387 9.75586 11.6882C9.83659 11.6378 9.90272 11.5662 9.94742 11.4808C9.86849 11.5236 9.78047 11.5457 9.69118 11.5452C9.55398 11.5452 9.4224 11.4894 9.32539 11.3901C9.22837 11.2908 9.17387 11.1561 9.17387 11.0157C9.17431 10.9147 9.20101 10.8156 9.25122 10.7287C9.14544 10.7763 9.0579 10.8582 9.00207 10.9618C8.94624 11.0654 8.92523 11.1849 8.94227 11.3019C8.9593 11.4189 9.01344 11.5269 9.09635 11.6093C9.17926 11.6917 9.28634 11.744 9.4011 11.758V12.0895C9.3815 12.0987 9.36479 12.1133 9.35283 12.1316C9.34088 12.15 9.33415 12.1714 9.33341 12.1934C9.33448 12.2148 9.3414 12.2354 9.35337 12.2529C9.36534 12.2704 9.38188 12.2841 9.4011 12.2924V12.9308C9.36516 12.9418 9.33338 12.9639 9.31004 12.994C9.28671 13.024 9.27293 13.0607 9.27056 13.099C9.27241 13.1329 9.28272 13.1657 9.3005 13.1943C9.31827 13.2229 9.34293 13.2463 9.37209 13.2624C9.11102 13.396 8.36164 13.8314 8.36164 14.3511C8.36099 14.5099 8.39342 14.6672 8.45678 14.8122C8.52013 14.9573 8.61296 15.0869 8.72908 15.1923L8.60338 17.8448H7.88301L8.44383 18.8642H8.60338L8.43416 24.3869H7.59293L8.26012 25.3766H8.38582L8.22144 30.8498C7.92356 30.6036 7.58891 30.4081 7.23033 30.2708C6.98444 30.1912 6.7578 30.0592 6.56532 29.8835C6.37283 29.7078 6.21886 29.4924 6.11352 29.2514C6.23439 29.2514 6.33592 29.1821 6.33592 29.1079C6.33592 29.0337 6.24889 28.9941 6.13769 28.9693V28.4745C6.17637 28.4745 6.20054 28.4448 6.20054 28.4151C6.20054 28.3854 6.17154 28.3755 6.13769 28.3607V27.8658C6.31331 27.9153 6.49873 27.9153 6.67434 27.8658C6.803 27.8212 6.92178 27.7511 7.02383 27.6594C7.12589 27.5676 7.20922 27.4562 7.26901 27.3313C7.14174 27.4411 6.99029 27.5175 6.82773 27.5539C6.66517 27.5903 6.4964 27.5856 6.33599 27.5403C6.17558 27.495 6.02836 27.4104 5.90705 27.2938C5.78574 27.1772 5.69399 27.0321 5.63972 26.8711C5.59468 26.7436 5.57573 26.6079 5.58405 26.4726C5.59237 26.3372 5.62777 26.205 5.68807 26.0843C5.5459 26.2059 5.43952 26.3655 5.38077 26.5454C5.32201 26.7253 5.3132 26.9183 5.3553 27.103C5.3974 27.2877 5.48877 27.4568 5.61923 27.5915C5.74968 27.7262 5.91411 27.8211 6.09418 27.8658L6.06517 28.3903C6.01683 28.3903 5.97815 28.42 5.97815 28.4448C5.97815 28.4695 6.01199 28.4943 6.0555 28.5042L6.0265 28.999C5.9153 28.999 5.82828 29.0683 5.82828 29.1376C5.82828 29.2069 5.93464 29.2712 6.06034 29.2811C5.95552 29.5224 5.80172 29.7381 5.60916 29.9139C5.41661 30.0897 5.1897 30.2215 4.94353 30.3005C3.60916 30.8449 3.20788 31.607 3.20788 32.5373C3.21493 33.2374 3.4671 33.9116 3.91858 34.4376H2.6809V36.1251C-18.472 36.1251 92.7476 36.1251 84.5996 36.1251Z" fill="url(#paint0_linear_922_1380)" style="mix-blend-mode:multiply"/>
<path d="M97.7319 17.6595C97.6301 17.6735 97.3539 17.7223 97.1141 17.7641C96.5254 17.8617 95.5879 18.3081 95.1301 18.6986C93.8728 19.7795 93.4731 21.5507 94.1708 22.9524C94.4251 23.4545 94.9411 24.0682 95.4644 24.4726C95.6751 24.64 96.4092 25.1002 97.0996 25.4977C99.1418 26.6763 99.8176 27.2132 100.181 27.9803C100.348 28.329 100.363 28.4405 100.334 28.9845C100.312 29.4935 100.268 29.6679 100.072 30.0514C99.7813 30.6163 99.3089 31.0347 98.8002 31.1811C98.3641 31.3067 97.3903 31.3206 96.8452 31.209C95.4062 30.9161 94.2144 29.8213 93.9309 28.5242C93.8728 28.2453 93.8147 28.1477 93.7274 28.1477C93.5676 28.1477 93.553 28.2871 93.444 29.9956C93.4004 30.686 93.3495 31.4949 93.3205 31.7878L93.2769 32.3318H93.4658C93.6112 32.3318 93.6548 32.2899 93.6911 32.0877C93.7202 31.9482 93.8219 31.7878 93.9382 31.7041C94.1853 31.5089 94.3815 31.5368 95.3699 31.9064C96.5182 32.3387 96.9688 32.4294 98.0952 32.4294C99.2144 32.4294 99.774 32.3248 100.588 31.9622C102.812 30.965 103.866 28.3708 102.848 26.4043C102.332 25.421 101.431 24.6818 99.3089 23.5103C96.6853 22.0598 96.0022 20.958 96.8598 19.5214C97.2159 18.9217 97.7609 18.6637 98.6694 18.6637C100.239 18.6637 101.387 19.5005 101.729 20.8743C101.794 21.1602 101.845 21.2439 101.954 21.2439C102.027 21.2439 102.092 21.2021 102.092 21.1532C102.092 21.1114 102.158 20.3164 102.238 19.3959C102.318 18.4754 102.383 17.7014 102.383 17.6665C102.383 17.6386 102.303 17.6177 102.209 17.6177C102.078 17.6177 102.012 17.6735 101.954 17.8269C101.918 17.9454 101.823 18.057 101.758 18.0849C101.693 18.1058 101.104 18.0291 100.457 17.9036C99.3743 17.6944 98.1606 17.5828 97.7319 17.6595Z" fill="#AC9676"/>
<path d="M183.634 18.0988C183.634 18.2871 183.649 18.2941 184.078 18.3429C184.703 18.3987 185.102 18.587 185.313 18.9147L185.487 19.1867V31.0626L185.269 31.3694C185.022 31.7041 184.746 31.8227 184.056 31.8924C183.649 31.9343 183.634 31.9412 183.634 32.1295V32.3318H188.939V32.1295C188.939 31.9412 188.925 31.9343 188.496 31.8855C187.835 31.8227 187.457 31.6344 187.253 31.2718L187.086 30.9719L187.043 22.1295L192.544 27.3527C196.956 31.5507 198.082 32.5828 198.249 32.5968L198.46 32.6177V26.0417C198.46 21.481 198.482 19.382 198.54 19.1867C198.7 18.6498 199.281 18.315 200.059 18.315C200.255 18.315 200.277 18.2941 200.277 18.1058V17.8966H195.044V18.1058C195.044 18.2941 195.066 18.315 195.284 18.315C195.698 18.315 196.352 18.5033 196.541 18.6707C196.919 19.0124 196.934 19.2007 196.934 23.3638C196.934 27.0389 196.941 27.2202 197.079 27.5131C197.159 27.6804 197.224 27.8687 197.224 27.9315C197.224 27.9942 194.848 25.7627 191.934 22.9663L186.65 17.8966H183.634V18.0988Z" fill="#AC9676"/>
<path d="M129.891 19.5354C129.716 19.6121 128.902 19.633 125.661 19.64H121.642V19.8352C121.642 20.0166 121.664 20.0305 122.151 20.1072C122.761 20.1979 122.972 20.3164 123.168 20.686C123.306 20.951 123.314 21.0835 123.314 25.9231C123.314 30.8325 123.314 30.8952 123.161 31.1951C122.972 31.5717 122.703 31.7111 122.1 31.7599C121.657 31.7948 121.642 31.7948 121.642 31.9901V32.1923H130.697L130.923 30.8115C131.148 29.4029 131.148 29.3401 130.865 29.3332C130.785 29.3332 130.697 29.4796 130.588 29.8004C130.399 30.3513 130.21 30.6163 129.905 30.7836C129.702 30.8882 129.404 30.9022 127.696 30.9231C126.606 30.9371 125.712 30.9301 125.712 30.9161C125.712 30.9022 125.777 30.7348 125.865 30.5605C126.003 30.2467 126.01 30.1281 125.988 28.2662C125.966 26.5298 125.952 26.2718 125.843 26.1044C125.77 26.0068 125.712 25.9022 125.712 25.8813C125.712 25.7976 128.583 25.8464 128.757 25.9371C129.019 26.0626 129.208 26.3415 129.251 26.6693C129.288 26.9343 129.309 26.9622 129.498 26.9622H129.709V23.6149H129.498C129.309 23.6149 129.288 23.6428 129.251 23.9078C129.2 24.2774 128.997 24.5354 128.684 24.64C128.437 24.7237 125.712 24.7725 125.712 24.6958C125.712 24.6749 125.77 24.5703 125.843 24.4726C125.944 24.3122 125.974 24.0751 125.988 22.9524C126.01 21.6414 125.995 21.5089 125.748 20.944C125.697 20.8325 125.792 20.8255 127.173 20.8255C127.987 20.8255 128.786 20.8604 128.939 20.8952C129.331 20.9789 129.491 21.1602 129.593 21.6344C129.665 21.9761 129.709 22.0528 129.84 22.0668C129.927 22.0807 130 22.0668 130.007 22.0319C130.007 22.004 130.065 21.4043 130.138 20.7C130.218 19.8562 130.232 19.4308 130.181 19.4378C130.145 19.4378 130.014 19.4866 129.891 19.5354Z" fill="#AC9676"/>
<path d="M174.848 19.5842C174.811 19.6749 173.779 22.2551 172.551 25.3234C171.323 28.3917 170.276 30.9789 170.226 31.0765C170.095 31.3067 169.76 31.6065 169.535 31.6902C169.433 31.7251 169.179 31.7809 168.976 31.8087C168.612 31.8506 168.59 31.8645 168.59 32.0598V32.262H173.242V32.0598C173.242 31.8645 173.227 31.8576 172.769 31.8087C172.391 31.7739 172.253 31.7251 172.072 31.5577C171.774 31.2927 171.795 31.1463 172.326 29.7864C172.551 29.2076 172.747 28.6219 172.755 28.4754L172.762 28.2174H174.891C176.061 28.2174 177.021 28.2383 177.021 28.2662C177.021 28.594 177.231 29.2913 177.566 30.0933C177.907 30.9092 177.966 31.1114 177.922 31.3276C177.856 31.6623 177.689 31.8087 177.326 31.8715C177.05 31.9134 177.021 31.9343 177.021 32.1226V32.3318H182.471V32.1295C182.471 31.9412 182.45 31.9203 182.108 31.8785C181.621 31.8157 181.236 31.5368 181.003 31.0696C180.894 30.8604 180.386 29.6749 179.87 28.4266C179.354 27.1783 178.3 24.647 177.522 22.799L176.112 19.4308H175.509C174.957 19.4308 174.906 19.4447 174.848 19.5842ZM175.596 24.8352C175.945 25.7139 176.323 26.5856 176.439 26.7669L176.65 27.1016H173.089L173.271 26.8715C173.365 26.753 173.765 25.8394 174.157 24.8492C174.586 23.7613 174.884 23.0849 174.92 23.1407C174.949 23.1895 175.255 23.9496 175.596 24.8352Z" fill="#AC9676"/>
<path d="M105.145 20.1281H105.53C106.097 20.1351 106.497 20.3304 106.671 20.7C106.809 20.9859 106.816 21.1951 106.816 25.9719C106.816 30.8185 106.809 30.951 106.671 31.216C106.475 31.5856 106.264 31.7041 105.653 31.7948C105.167 31.8715 105.145 31.8855 105.145 32.0668V32.262H110.959V32.0598C110.959 31.8645 110.944 31.8506 110.566 31.8087C110.348 31.7809 110.072 31.6972 109.941 31.6274C109.527 31.3834 109.505 31.2509 109.505 28.7265C109.498 26.467 109.491 26.3694 109.251 25.8255C109.2 25.7139 109.382 25.7069 112.478 25.7069C114.28 25.7069 115.755 25.7209 115.755 25.7418C115.755 25.7627 115.697 25.8673 115.632 25.965C115.516 26.1323 115.494 26.4252 115.465 28.6358C115.428 30.9371 115.421 31.1253 115.283 31.3346C115.116 31.6065 114.832 31.746 114.316 31.8157C113.96 31.8576 113.938 31.8715 113.938 32.0598V32.262H119.825V32.0668C119.825 31.8855 119.803 31.8715 119.316 31.7948C118.706 31.7041 118.495 31.5856 118.299 31.216C118.161 30.951 118.154 30.8185 118.154 25.9719C118.154 21.2439 118.161 20.9859 118.292 20.7069C118.372 20.5465 118.517 20.3652 118.612 20.3025C118.757 20.2118 119.447 20.0654 119.774 20.0584C119.803 20.0584 119.825 19.9608 119.825 19.8492V19.64H113.938V19.8422C113.938 20.0305 113.96 20.0445 114.316 20.0863C114.832 20.156 115.116 20.2955 115.283 20.5675C115.414 20.7697 115.436 20.965 115.465 22.4991C115.494 23.9845 115.516 24.2425 115.632 24.4029L115.755 24.5912H112.485C110.69 24.5912 109.215 24.5772 109.215 24.5563C109.215 24.5354 109.273 24.4308 109.345 24.3332C109.454 24.1728 109.476 23.9078 109.505 22.4294C109.534 21.223 109.571 20.6721 109.636 20.5675C109.767 20.3373 110.247 20.1281 110.632 20.1281C110.959 20.1281 110.959 20.1281 110.959 19.8841V19.64H105.145V20.1281Z" fill="#AC9676"/>
<path d="M132.689 19.8492C132.689 20.0235 132.718 20.0584 132.856 20.0584C133.168 20.0584 133.888 20.2746 134.04 20.414C134.36 20.7 134.368 20.8743 134.346 26.0905C134.324 30.7279 134.317 31.0556 134.193 31.2718C134.04 31.5438 133.634 31.739 133.074 31.8087C132.711 31.8576 132.689 31.8645 132.689 32.0598V32.262H138.721V32.0598C138.721 31.8715 138.699 31.8576 138.343 31.8157C137.827 31.746 137.384 31.5507 137.216 31.3136C137.093 31.1323 137.086 30.8325 137.064 26.1253C137.042 20.8743 137.049 20.7 137.369 20.414C137.522 20.2746 138.241 20.0584 138.554 20.0584C138.692 20.0584 138.721 20.0235 138.721 19.8492V19.64H132.689V19.8492Z" fill="#AC9676"/>
<path d="M140.392 19.8422C140.392 20.0375 140.414 20.0445 140.777 20.0933C141.33 20.163 141.715 20.3513 142.013 20.693C142.253 20.965 145.407 25.7418 145.407 25.8255C145.407 25.8882 142.187 30.6233 141.955 30.9022C141.657 31.2578 140.916 31.6763 140.414 31.7739C140.058 31.8506 140.029 31.8645 140.029 32.0598V32.262H144.535V32.0598C144.535 31.8785 144.498 31.8506 144.208 31.7809C143.75 31.6693 143.561 31.474 143.612 31.1672C143.641 31.0277 144.106 30.2467 144.738 29.2774C145.821 27.6316 146.01 27.2551 145.937 26.9482C145.901 26.8087 145.908 26.8018 146.003 26.8924C146.206 27.0877 148.328 30.5187 148.474 30.8813C148.547 31.0765 148.597 31.3067 148.576 31.3903C148.532 31.5577 148.11 31.7739 147.842 31.7739C147.689 31.7739 147.66 31.8087 147.66 31.9831V32.1923H153.692V31.9901C153.692 31.8018 153.677 31.7948 153.256 31.753C153.016 31.7251 152.696 31.6553 152.551 31.5995C152.238 31.474 151.788 31.0765 151.592 30.7627C151.519 30.6442 150.719 29.3889 149.811 27.9594L148.161 25.3722L149.651 23.2523C150.472 22.0947 151.279 21.0068 151.446 20.8394C151.817 20.4698 152.34 20.2118 152.9 20.1142C153.307 20.0445 153.329 20.0305 153.329 19.8422V19.64H148.605V19.8422C148.605 20.0166 148.634 20.0514 148.874 20.0933C149.477 20.1979 149.658 20.4071 149.535 20.8534C149.506 20.965 149.062 21.6553 148.561 22.3806C147.754 23.5242 147.631 23.7474 147.602 24.0403C147.587 24.2286 147.544 24.382 147.522 24.382C147.42 24.382 145.4 21.0417 145.356 20.8046C145.298 20.4489 145.545 20.2327 146.126 20.1212C146.548 20.0445 146.57 20.0305 146.57 19.8422V19.64H140.392V19.8422Z" fill="#AC9676"/>
<path d="M155 19.8422C155 20.0375 155.022 20.0445 155.385 20.0933C155.938 20.163 156.323 20.3513 156.621 20.693C156.861 20.965 160.015 25.7418 160.015 25.8255C160.015 25.8882 156.795 30.6233 156.563 30.9022C156.265 31.2578 155.523 31.6763 155.022 31.7739C154.666 31.8506 154.637 31.8645 154.637 32.0598V32.262H159.143V32.0598C159.143 31.8785 159.106 31.8506 158.816 31.7809C158.358 31.6693 158.169 31.474 158.22 31.1672C158.249 31.0277 158.714 30.2467 159.346 29.2774C160.429 27.6316 160.618 27.2551 160.545 26.9482C160.509 26.8087 160.516 26.8018 160.611 26.8924C160.814 27.0877 162.936 30.5187 163.082 30.8813C163.154 31.0765 163.205 31.3067 163.183 31.3903C163.14 31.5577 162.718 31.7739 162.449 31.7739C162.297 31.7739 162.268 31.8087 162.268 31.9831V32.1923H168.3V31.9901C168.3 31.8018 168.285 31.7948 167.864 31.753C167.624 31.7251 167.304 31.6553 167.159 31.5995C166.846 31.474 166.396 31.0765 166.199 30.7627C166.127 30.6442 165.327 29.3889 164.419 27.9594L162.769 25.3722L164.259 23.2523C165.08 22.0947 165.887 21.0068 166.054 20.8394C166.425 20.4698 166.948 20.2118 167.508 20.1142C167.914 20.0445 167.936 20.0305 167.936 19.8422V19.64H163.212V19.8422C163.212 20.0166 163.241 20.0514 163.481 20.0933C164.085 20.1979 164.266 20.4071 164.143 20.8534C164.114 20.965 163.67 21.6553 163.169 22.3806C162.362 23.5242 162.239 23.7474 162.209 24.0403C162.195 24.2286 162.151 24.382 162.13 24.382C162.028 24.382 160.007 21.0417 159.964 20.8046C159.906 20.4489 160.153 20.2327 160.734 20.1212C161.156 20.0445 161.177 20.0305 161.177 19.8422V19.64H155V19.8422Z" fill="#AC9676"/>
<path d="M99.8289 44.6817C99.8289 44.351 99.7809 44.0497 99.6849 43.7777C99.5942 43.5003 99.4582 43.263 99.2769 43.0657C99.1009 42.863 98.8849 42.7083 98.6289 42.6017C98.3729 42.4897 98.0822 42.4337 97.7569 42.4337C97.0742 42.4337 96.5329 42.6337 96.1329 43.0337C95.7382 43.4283 95.4929 43.9777 95.3969 44.6817H99.8289ZM100.981 48.4817C100.805 48.695 100.594 48.8817 100.349 49.0417C100.104 49.1963 99.8395 49.3243 99.5569 49.4257C99.2795 49.527 98.9915 49.6017 98.6929 49.6497C98.3942 49.703 98.0982 49.7297 97.8049 49.7297C97.2449 49.7297 96.7275 49.6363 96.2529 49.4497C95.7835 49.2577 95.3755 48.9803 95.0289 48.6177C94.6875 48.2497 94.4209 47.7963 94.2289 47.2577C94.0369 46.719 93.9409 46.1003 93.9409 45.4017C93.9409 44.8363 94.0262 44.3083 94.1969 43.8177C94.3729 43.327 94.6235 42.903 94.9489 42.5457C95.2742 42.183 95.6715 41.9003 96.1409 41.6977C96.6102 41.4897 97.1382 41.3857 97.7249 41.3857C98.2102 41.3857 98.6582 41.4683 99.0689 41.6337C99.4849 41.7937 99.8422 42.0283 100.141 42.3377C100.445 42.6417 100.682 43.0203 100.853 43.4737C101.024 43.9217 101.109 44.4337 101.109 45.0097C101.109 45.2337 101.085 45.383 101.037 45.4577C100.989 45.5323 100.898 45.5697 100.765 45.5697H95.3489C95.3649 46.0817 95.4342 46.527 95.5569 46.9057C95.6849 47.2843 95.8609 47.6017 96.0849 47.8577C96.3089 48.1083 96.5755 48.2977 96.8849 48.4257C97.1942 48.5483 97.5409 48.6097 97.9249 48.6097C98.2822 48.6097 98.5889 48.5697 98.8449 48.4897C99.1062 48.4043 99.3302 48.3137 99.5169 48.2177C99.7035 48.1217 99.8582 48.0337 99.9809 47.9537C100.109 47.8683 100.218 47.8257 100.309 47.8257C100.426 47.8257 100.517 47.871 100.581 47.9617L100.981 48.4817ZM105.283 49.7457C104.643 49.7457 104.15 49.567 103.803 49.2097C103.462 48.8523 103.291 48.3377 103.291 47.6657V42.7057H102.315C102.23 42.7057 102.158 42.6817 102.099 42.6337C102.041 42.5803 102.011 42.5003 102.011 42.3937V41.8257L103.339 41.6577L103.667 39.1537C103.683 39.0737 103.718 39.0097 103.771 38.9617C103.83 38.9083 103.905 38.8817 103.995 38.8817H104.715V41.6737H107.059V42.7057H104.715V47.5697C104.715 47.911 104.798 48.1643 104.963 48.3297C105.129 48.495 105.342 48.5777 105.603 48.5777C105.753 48.5777 105.881 48.559 105.987 48.5217C106.099 48.479 106.195 48.4337 106.275 48.3857C106.355 48.3377 106.422 48.295 106.475 48.2577C106.534 48.215 106.585 48.1937 106.627 48.1937C106.702 48.1937 106.769 48.239 106.827 48.3297L107.243 49.0097C106.998 49.239 106.702 49.4203 106.355 49.5537C106.009 49.6817 105.651 49.7457 105.283 49.7457ZM109.962 42.5937C110.309 42.2257 110.693 41.9323 111.114 41.7137C111.535 41.495 112.021 41.3857 112.57 41.3857C113.013 41.3857 113.402 41.4603 113.738 41.6097C114.079 41.7537 114.362 41.9617 114.586 42.2337C114.815 42.5003 114.989 42.823 115.106 43.2017C115.223 43.5803 115.282 43.999 115.282 44.4577V49.6177H113.85V44.4577C113.85 43.8443 113.709 43.3697 113.426 43.0337C113.149 42.6923 112.725 42.5217 112.154 42.5217C111.733 42.5217 111.338 42.623 110.97 42.8257C110.607 43.0283 110.271 43.303 109.962 43.6497V49.6177H108.53V37.8337H109.962V42.5937ZM118.796 42.6897C118.972 42.4923 119.158 42.3137 119.356 42.1537C119.553 41.9937 119.761 41.8577 119.98 41.7457C120.204 41.6283 120.438 41.5403 120.684 41.4817C120.934 41.4177 121.204 41.3857 121.492 41.3857C121.934 41.3857 122.324 41.4603 122.66 41.6097C123.001 41.7537 123.284 41.9617 123.508 42.2337C123.737 42.5003 123.91 42.823 124.028 43.2017C124.145 43.5803 124.204 43.999 124.204 44.4577V49.6177H122.772V44.4577C122.772 43.8443 122.63 43.3697 122.348 43.0337C122.07 42.6923 121.646 42.5217 121.076 42.5217C120.654 42.5217 120.26 42.623 119.892 42.8257C119.529 43.0283 119.193 43.303 118.884 43.6497V49.6177H117.452V41.5137H118.308C118.51 41.5137 118.636 41.6123 118.684 41.8097L118.796 42.6897ZM129.79 41.3857C130.382 41.3857 130.915 41.4843 131.39 41.6817C131.864 41.879 132.27 42.159 132.606 42.5217C132.942 42.8843 133.198 43.3243 133.374 43.8417C133.555 44.3537 133.646 44.927 133.646 45.5617C133.646 46.2017 133.555 46.7777 133.374 47.2897C133.198 47.8017 132.942 48.239 132.606 48.6017C132.27 48.9643 131.864 49.2443 131.39 49.4417C130.915 49.6337 130.382 49.7297 129.79 49.7297C129.192 49.7297 128.654 49.6337 128.174 49.4417C127.699 49.2443 127.294 48.9643 126.958 48.6017C126.622 48.239 126.363 47.8017 126.182 47.2897C126.006 46.7777 125.918 46.2017 125.918 45.5617C125.918 44.927 126.006 44.3537 126.182 43.8417C126.363 43.3243 126.622 42.8843 126.958 42.5217C127.294 42.159 127.699 41.879 128.174 41.6817C128.654 41.4843 129.192 41.3857 129.79 41.3857ZM129.79 48.6177C130.59 48.6177 131.187 48.351 131.582 47.8177C131.976 47.279 132.174 46.5297 132.174 45.5697C132.174 44.6043 131.976 43.8523 131.582 43.3137C131.187 42.775 130.59 42.5057 129.79 42.5057C129.384 42.5057 129.03 42.575 128.726 42.7137C128.427 42.8523 128.176 43.0523 127.974 43.3137C127.776 43.575 127.627 43.8977 127.526 44.2817C127.43 44.6603 127.382 45.0897 127.382 45.5697C127.382 46.5297 127.579 47.279 127.974 47.8177C128.374 48.351 128.979 48.6177 129.79 48.6177ZM135.324 44.2177H139.276V45.4257H135.324V44.2177ZM147.029 42.9537C146.987 43.0123 146.944 43.0577 146.901 43.0897C146.859 43.1217 146.8 43.1377 146.725 43.1377C146.645 43.1377 146.557 43.1057 146.461 43.0417C146.365 42.9723 146.245 42.8977 146.101 42.8177C145.963 42.7377 145.789 42.6657 145.581 42.6017C145.379 42.5323 145.128 42.4977 144.829 42.4977C144.429 42.4977 144.077 42.5697 143.773 42.7137C143.469 42.8523 143.213 43.055 143.005 43.3217C142.803 43.5883 142.648 43.911 142.541 44.2897C142.44 44.6683 142.389 45.0923 142.389 45.5617C142.389 46.0523 142.445 46.4897 142.557 46.8737C142.669 47.2523 142.827 47.5723 143.029 47.8337C143.237 48.0897 143.485 48.287 143.773 48.4257C144.067 48.559 144.395 48.6257 144.757 48.6257C145.104 48.6257 145.389 48.5857 145.613 48.5057C145.837 48.4203 146.021 48.327 146.165 48.2257C146.315 48.1243 146.437 48.0337 146.533 47.9537C146.635 47.8683 146.733 47.8257 146.829 47.8257C146.947 47.8257 147.037 47.871 147.101 47.9617L147.501 48.4817C147.325 48.7003 147.125 48.887 146.901 49.0417C146.677 49.1963 146.435 49.327 146.173 49.4337C145.917 49.535 145.648 49.6097 145.365 49.6577C145.083 49.7057 144.795 49.7297 144.501 49.7297C143.995 49.7297 143.523 49.6363 143.085 49.4497C142.653 49.263 142.277 48.9937 141.957 48.6417C141.637 48.2843 141.387 47.847 141.205 47.3297C141.024 46.8123 140.933 46.223 140.933 45.5617C140.933 44.959 141.016 44.4017 141.181 43.8897C141.352 43.3777 141.597 42.9377 141.917 42.5697C142.243 42.1963 142.64 41.9057 143.109 41.6977C143.584 41.4897 144.128 41.3857 144.741 41.3857C145.312 41.3857 145.813 41.479 146.245 41.6657C146.683 41.847 147.069 42.1057 147.405 42.4417L147.029 42.9537ZM154.313 44.6817C154.313 44.351 154.265 44.0497 154.169 43.7777C154.079 43.5003 153.943 43.263 153.761 43.0657C153.585 42.863 153.369 42.7083 153.113 42.6017C152.857 42.4897 152.567 42.4337 152.241 42.4337C151.559 42.4337 151.017 42.6337 150.617 43.0337C150.223 43.4283 149.977 43.9777 149.881 44.6817H154.313ZM155.465 48.4817C155.289 48.695 155.079 48.8817 154.833 49.0417C154.588 49.1963 154.324 49.3243 154.041 49.4257C153.764 49.527 153.476 49.6017 153.177 49.6497C152.879 49.703 152.583 49.7297 152.289 49.7297C151.729 49.7297 151.212 49.6363 150.737 49.4497C150.268 49.2577 149.86 48.9803 149.513 48.6177C149.172 48.2497 148.905 47.7963 148.713 47.2577C148.521 46.719 148.425 46.1003 148.425 45.4017C148.425 44.8363 148.511 44.3083 148.681 43.8177C148.857 43.327 149.108 42.903 149.433 42.5457C149.759 42.183 150.156 41.9003 150.625 41.6977C151.095 41.4897 151.623 41.3857 152.209 41.3857C152.695 41.3857 153.143 41.4683 153.553 41.6337C153.969 41.7937 154.327 42.0283 154.625 42.3377C154.929 42.6417 155.167 43.0203 155.337 43.4737C155.508 43.9217 155.593 44.4337 155.593 45.0097C155.593 45.2337 155.569 45.383 155.521 45.4577C155.473 45.5323 155.383 45.5697 155.249 45.5697H149.833C149.849 46.0817 149.919 46.527 150.041 46.9057C150.169 47.2843 150.345 47.6017 150.569 47.8577C150.793 48.1083 151.06 48.2977 151.369 48.4257C151.679 48.5483 152.025 48.6097 152.409 48.6097C152.767 48.6097 153.073 48.5697 153.329 48.4897C153.591 48.4043 153.815 48.3137 154.001 48.2177C154.188 48.1217 154.343 48.0337 154.465 47.9537C154.593 47.8683 154.703 47.8257 154.793 47.8257C154.911 47.8257 155.001 47.871 155.065 47.9617L155.465 48.4817ZM158.686 42.6897C158.862 42.4923 159.049 42.3137 159.246 42.1537C159.444 41.9937 159.652 41.8577 159.87 41.7457C160.094 41.6283 160.329 41.5403 160.574 41.4817C160.825 41.4177 161.094 41.3857 161.382 41.3857C161.825 41.3857 162.214 41.4603 162.55 41.6097C162.892 41.7537 163.174 41.9617 163.398 42.2337C163.628 42.5003 163.801 42.823 163.918 43.2017C164.036 43.5803 164.094 43.999 164.094 44.4577V49.6177H162.662V44.4577C162.662 43.8443 162.521 43.3697 162.238 43.0337C161.961 42.6923 161.537 42.5217 160.966 42.5217C160.545 42.5217 160.15 42.623 159.782 42.8257C159.42 43.0283 159.084 43.303 158.774 43.6497V49.6177H157.342V41.5137H158.198C158.401 41.5137 158.526 41.6123 158.574 41.8097L158.686 42.6897ZM168.643 49.7457C168.003 49.7457 167.51 49.567 167.163 49.2097C166.822 48.8523 166.651 48.3377 166.651 47.6657V42.7057H165.675C165.59 42.7057 165.518 42.6817 165.459 42.6337C165.4 42.5803 165.371 42.5003 165.371 42.3937V41.8257L166.699 41.6577L167.027 39.1537C167.043 39.0737 167.078 39.0097 167.131 38.9617C167.19 38.9083 167.264 38.8817 167.355 38.8817H168.075V41.6737H170.419V42.7057H168.075V47.5697C168.075 47.911 168.158 48.1643 168.323 48.3297C168.488 48.495 168.702 48.5777 168.963 48.5777C169.112 48.5777 169.24 48.559 169.347 48.5217C169.459 48.479 169.555 48.4337 169.635 48.3857C169.715 48.3377 169.782 48.295 169.835 48.2577C169.894 48.215 169.944 48.1937 169.987 48.1937C170.062 48.1937 170.128 48.239 170.187 48.3297L170.603 49.0097C170.358 49.239 170.062 49.4203 169.715 49.5537C169.368 49.6817 169.011 49.7457 168.643 49.7457ZM177.266 44.6817C177.266 44.351 177.218 44.0497 177.122 43.7777C177.032 43.5003 176.896 43.263 176.714 43.0657C176.538 42.863 176.322 42.7083 176.066 42.6017C175.81 42.4897 175.52 42.4337 175.194 42.4337C174.512 42.4337 173.97 42.6337 173.57 43.0337C173.176 43.4283 172.93 43.9777 172.834 44.6817H177.266ZM178.418 48.4817C178.242 48.695 178.032 48.8817 177.786 49.0417C177.541 49.1963 177.277 49.3243 176.994 49.4257C176.717 49.527 176.429 49.6017 176.13 49.6497C175.832 49.703 175.536 49.7297 175.242 49.7297C174.682 49.7297 174.165 49.6363 173.69 49.4497C173.221 49.2577 172.813 48.9803 172.466 48.6177C172.125 48.2497 171.858 47.7963 171.666 47.2577C171.474 46.719 171.378 46.1003 171.378 45.4017C171.378 44.8363 171.464 44.3083 171.634 43.8177C171.81 43.327 172.061 42.903 172.386 42.5457C172.712 42.183 173.109 41.9003 173.578 41.6977C174.048 41.4897 174.576 41.3857 175.162 41.3857C175.648 41.3857 176.096 41.4683 176.506 41.6337C176.922 41.7937 177.28 42.0283 177.578 42.3377C177.882 42.6417 178.12 43.0203 178.29 43.4737C178.461 43.9217 178.546 44.4337 178.546 45.0097C178.546 45.2337 178.522 45.383 178.474 45.4577C178.426 45.5323 178.336 45.5697 178.202 45.5697H172.786C172.802 46.0817 172.872 46.527 172.994 46.9057C173.122 47.2843 173.298 47.6017 173.522 47.8577C173.746 48.1083 174.013 48.2977 174.322 48.4257C174.632 48.5483 174.978 48.6097 175.362 48.6097C175.72 48.6097 176.026 48.5697 176.282 48.4897C176.544 48.4043 176.768 48.3137 176.954 48.2177C177.141 48.1217 177.296 48.0337 177.418 47.9537C177.546 47.8683 177.656 47.8257 177.746 47.8257C177.864 47.8257 177.954 47.871 178.018 47.9617L178.418 48.4817ZM181.647 43.1377C181.903 42.583 182.218 42.151 182.591 41.8417C182.965 41.527 183.421 41.3697 183.959 41.3697C184.13 41.3697 184.293 41.3883 184.447 41.4257C184.607 41.463 184.749 41.5217 184.871 41.6017L184.767 42.6657C184.735 42.799 184.655 42.8657 184.527 42.8657C184.453 42.8657 184.343 42.8497 184.199 42.8177C184.055 42.7857 183.893 42.7697 183.711 42.7697C183.455 42.7697 183.226 42.807 183.023 42.8817C182.826 42.9563 182.647 43.0683 182.487 43.2177C182.333 43.3617 182.191 43.543 182.063 43.7617C181.941 43.975 181.829 44.2203 181.727 44.4977V49.6177H180.295V41.5137H181.111C181.266 41.5137 181.373 41.543 181.431 41.6017C181.49 41.6603 181.53 41.7617 181.551 41.9057L181.647 43.1377Z" fill="#AC9676"/>
<defs>
<linearGradient id="paint0_linear_922_1380" x1="43.6401" y1="0.616699" x2="43.6401" y2="36.125" gradientUnits="userSpaceOnUse">
<stop stop-color="#EADBC2"/>
<stop offset="1" stop-color="#EADBC2" stop-opacity="0"/>
</linearGradient>
</defs>
</svg>
